<?xml version="1.0" standalone="no"?>
<!DOCTYPE svg PUBLIC "-//W3C//DTD SVG 20010904//EN"
 "http://www.w3.org/TR/2001/REC-SVG-20010904/DTD/svg10.dtd">
<svg version="1.0" xmlns="http://www.w3.org/2000/svg"
 width="1407.000000pt" height="1407.000000pt" viewBox="0 0 1407.000000 1407.000000"
 preserveAspectRatio="xMidYMid meet">
<metadata>
Created by potrace 1.14, written by Peter Selinger 2001-2017
</metadata>
<g transform="translate(0.000000,1407.000000) scale(0.100000,-0.100000)"
fill="#000000" stroke="none">
<path d="M6781 13895 c-1 -15 -3 -17 -10 -6 -6 9 -11 10 -15 2 -4 -6 -12 -11
-17 -11 -6 0 -7 5 -3 11 4 8 0 8 -15 0 -12 -7 -26 -9 -31 -6 -5 3 -11 1 -15
-5 -4 -6 -11 -7 -17 -4 -18 11 -68 13 -68 2 0 -5 -6 -6 -12 -2 -17 10 -48 13
-48 4 0 -4 -14 -6 -32 -4 -17 2 -38 -2 -46 -9 -12 -10 -16 -9 -20 1 -3 10 -7
10 -20 0 -12 -10 -14 -10 -8 0 11 18 -3 15 -22 -6 -10 -9 -14 -13 -9 -8 13 18
7 29 -8 16 -8 -7 -24 -10 -36 -7 -15 4 -19 2 -15 -8 3 -9 0 -12 -9 -8 -8 3
-12 9 -9 14 3 5 -2 6 -10 3 -9 -3 -13 -11 -9 -18 5 -8 3 -8 -8 -1 -16 12 -39
13 -56 2 -8 -5 -13 -3 -13 4 0 8 -4 8 -15 -1 -12 -10 -18 -10 -32 1 -13 11
-15 11 -9 1 6 -10 2 -13 -15 -12 -46 4 -60 0 -53 -12 4 -7 -3 -4 -15 6 -16 15
-20 16 -16 4 5 -13 -1 -15 -34 -14 -23 1 -41 -1 -41 -5 0 -3 -12 -4 -26 -1
-19 3 -25 1 -20 -7 4 -6 2 -11 -3 -11 -6 0 -11 5 -11 11 0 5 -5 7 -10 4 -6 -4
-7 -11 -4 -17 4 -6 -2 -6 -15 1 -13 7 -21 8 -21 2 0 -5 -10 -8 -22 -6 -12 3
-27 -3 -35 -13 -7 -9 -12 -12 -11 -5 3 11 0 13 -28 13 -9 0 -12 -5 -8 -12 4
-6 3 -8 -4 -4 -5 3 -12 3 -15 -1 -2 -5 -2 -3 -1 4 2 7 -1 15 -7 18 -5 4 -9 3
-8 -2 3 -20 -2 -24 -17 -13 -12 11 -15 11 -12 0 2 -7 -3 -15 -11 -18 -9 -3
-11 0 -6 8 6 9 4 11 -5 5 -7 -5 -29 -9 -49 -11 -19 -1 -37 -7 -39 -13 -3 -9
-8 -8 -20 1 -12 10 -14 10 -8 1 5 -9 -2 -13 -24 -13 -17 0 -29 -4 -26 -8 3 -5
-1 -9 -9 -9 -8 0 -12 4 -9 8 2 4 -1 11 -7 15 -8 4 -9 3 -5 -4 4 -7 2 -12 -4
-12 -6 0 -8 -4 -5 -10 4 -6 -1 -7 -10 -3 -10 3 -21 0 -26 -8 -5 -8 -9 -9 -9
-3 0 6 -7 11 -15 11 -8 0 -15 -4 -15 -8 0 -5 -7 -5 -17 -2 -11 4 -14 3 -9 -5
4 -7 1 -12 -9 -12 -10 0 -13 5 -9 13 4 6 -3 3 -16 -8 -14 -12 -20 -14 -15 -5
8 13 6 13 -8 2 -9 -8 -21 -11 -26 -8 -5 4 -12 2 -16 -3 -3 -6 -13 -7 -22 -4
-10 4 -14 2 -9 -5 3 -6 1 -14 -5 -18 -7 -4 -9 -3 -5 4 3 6 2 13 -3 16 -5 3
-11 0 -14 -7 -3 -7 -21 -12 -45 -12 -29 0 -38 -3 -35 -13 4 -9 -2 -11 -21 -8
-18 3 -24 1 -20 -6 5 -7 1 -9 -9 -5 -9 3 -17 1 -19 -4 -2 -6 -23 -11 -46 -12
-24 -1 -40 -6 -38 -12 2 -6 -10 -11 -26 -12 -17 0 -34 -7 -39 -14 -5 -8 -9 -9
-9 -4 0 6 -9 11 -19 11 -15 0 -17 -4 -10 -13 8 -9 6 -11 -10 -8 -12 2 -21 -1
-21 -7 0 -7 -5 -6 -14 1 -10 9 -16 9 -21 1 -4 -6 -14 -9 -22 -6 -8 3 -11 1 -8
-4 3 -6 1 -10 -5 -10 -6 0 -8 -5 -4 -12 6 -10 5 -10 -7 -1 -12 10 -20 9 -39
-4 -13 -9 -20 -11 -15 -4 6 10 3 11 -14 2 -11 -7 -21 -14 -21 -17 0 -3 5 -2
12 2 7 4 8 3 4 -5 -6 -9 -11 -9 -22 0 -11 9 -15 8 -20 -4 -3 -9 -12 -13 -20
-10 -8 3 -14 0 -14 -7 0 -6 -5 -8 -11 -4 -6 3 -15 1 -19 -7 -10 -16 -42 -22
-34 -6 3 7 0 5 -8 -3 -7 -8 -19 -15 -25 -16 -30 -2 -34 -5 -28 -14 9 -14 -8
-12 -24 3 -9 7 -11 7 -8 1 8 -13 -20 -27 -34 -18 -5 3 -9 0 -9 -7 0 -7 -3 -9
-6 -6 -4 3 -16 0 -28 -8 -25 -18 -40 -19 -30 -3 5 7 -5 3 -20 -10 -16 -12 -32
-19 -37 -16 -5 3 -8 0 -7 -7 2 -6 -3 -14 -11 -17 -9 -3 -11 0 -6 9 5 8 0 6
-12 -4 -11 -9 -23 -14 -26 -10 -6 6 -11 -11 -8 -29 0 -4 -11 -3 -25 2 -17 7
-23 7 -19 0 3 -6 -3 -10 -14 -10 -11 0 -23 -5 -27 -12 -5 -7 -3 -8 6 -3 9 5
11 4 6 -3 -5 -9 -13 -9 -29 -1 -12 7 -19 8 -15 4 11 -11 -23 -34 -49 -35 -13
0 -23 -5 -23 -11 0 -5 -4 -7 -10 -4 -5 3 -10 1 -10 -5 0 -7 -7 -10 -15 -6 -8
3 -19 -2 -24 -12 -6 -9 -11 -13 -11 -8 0 5 -10 1 -22 -10 -12 -10 -19 -14 -15
-8 3 6 0 11 -8 11 -8 0 -12 -4 -9 -9 3 -4 0 -8 -6 -8 -6 0 -8 -5 -4 -12 4 -6
3 -8 -4 -4 -6 3 -13 2 -17 -4 -3 -5 -17 -10 -31 -10 -14 0 -24 -6 -24 -14 0
-9 -9 -13 -24 -12 -18 2 -23 -1 -18 -12 3 -9 1 -13 -5 -9 -6 4 -17 1 -25 -6
-7 -8 -20 -12 -28 -9 -8 3 -12 1 -7 -3 9 -10 -51 -37 -64 -29 -5 3 -6 -1 -3
-9 3 -8 -2 -17 -11 -21 -11 -4 -14 -2 -8 6 4 7 -6 3 -21 -10 -16 -12 -33 -19
-39 -15 -5 3 -7 1 -3 -5 3 -6 -6 -13 -23 -17 -16 -3 -32 -13 -35 -21 -3 -9
-10 -12 -16 -9 -5 3 -10 1 -10 -5 0 -6 -4 -8 -10 -5 -5 3 -10 1 -10 -5 0 -6
-4 -8 -10 -5 -5 3 -7 0 -4 -8 7 -19 -12 -32 -22 -16 -5 8 -3 9 6 4 9 -6 11 -4
5 5 -6 10 -12 7 -26 -11 -10 -13 -19 -20 -19 -15 0 6 -6 1 -14 -10 -8 -10 -23
-19 -33 -19 -10 0 -17 -6 -15 -14 2 -8 -3 -11 -13 -8 -9 4 -15 1 -15 -9 0 -8
-4 -12 -10 -9 -5 3 -20 -3 -32 -14 -19 -19 -38 -26 -60 -22 -4 0 -4 -7 -1 -16
4 -10 2 -14 -4 -10 -5 4 -19 -1 -29 -9 -10 -9 -13 -12 -5 -8 9 4 12 3 7 -4 -3
-6 -15 -9 -26 -7 -17 3 -24 -5 -22 -26 1 -3 -5 -6 -13 -6 -8 0 -12 5 -9 11 3
6 -2 2 -11 -9 -9 -11 -21 -19 -26 -18 -5 2 -9 -4 -9 -12 0 -8 -6 -14 -12 -12
-7 1 -12 -4 -10 -11 1 -8 -2 -11 -8 -7 -10 6 -25 -3 -68 -45 -14 -14 -22 -19
-18 -12 4 6 3 12 -3 12 -5 0 -13 -9 -16 -20 -4 -11 -11 -18 -16 -15 -5 4 -12
0 -15 -9 -3 -9 -12 -12 -21 -9 -9 4 -14 2 -11 -3 3 -5 0 -15 -8 -22 -8 -7 -14
-10 -14 -5 0 4 -7 -2 -16 -13 -8 -10 -13 -12 -9 -4 5 12 4 12 -7 -1 -14 -17
-59 -44 -69 -42 -4 1 -6 -5 -5 -14 0 -8 -8 -17 -18 -19 -10 -1 -26 -10 -35
-20 -13 -13 -13 -15 -1 -8 13 7 13 6 1 -10 -10 -12 -16 -13 -21 -6 -5 7 -9 4
-13 -9 -3 -14 -13 -21 -29 -21 -18 0 -20 -2 -8 -10 11 -7 12 -10 2 -10 -8 0
-21 -8 -30 -18 -10 -10 -13 -11 -7 -2 6 10 2 9 -12 -4 -13 -10 -20 -23 -16
-29 3 -6 1 -7 -5 -3 -7 4 -12 2 -12 -4 0 -6 -4 -9 -8 -6 -12 7 -52 -40 -44
-50 4 -5 -1 -2 -11 5 -15 12 -17 12 -11 -4 5 -13 4 -16 -4 -11 -7 4 -12 2 -12
-3 0 -6 -7 -11 -15 -11 -8 0 -14 -6 -12 -12 1 -7 -4 -12 -10 -11 -7 2 -13 -2
-13 -8 0 -5 -5 -7 -12 -3 -8 5 -9 2 -5 -9 4 -11 1 -17 -8 -17 -8 0 -15 -7 -15
-16 0 -8 -4 -12 -10 -9 -5 3 -10 1 -10 -5 0 -6 -4 -9 -9 -5 -5 3 -12 -4 -16
-15 -3 -11 -13 -20 -21 -20 -8 0 -12 -4 -9 -10 3 -5 -1 -10 -9 -10 -8 0 -18
-5 -22 -12 -5 -7 -3 -8 6 -3 9 6 11 4 6 -4 -5 -7 -14 -10 -22 -7 -8 3 -11 0
-7 -10 3 -9 0 -14 -8 -12 -8 2 -13 -5 -13 -15 2 -15 -1 -16 -14 -5 -12 10 -14
10 -8 1 4 -8 2 -13 -4 -13 -6 0 -8 -5 -4 -12 6 -9 3 -9 -9 0 -14 12 -16 11
-12 -7 2 -12 -1 -20 -8 -18 -7 1 -11 -3 -10 -10 2 -7 -6 -10 -17 -8 -14 3 -17
-1 -13 -13 3 -9 2 -14 -2 -10 -5 5 -15 -1 -22 -12 -8 -11 -19 -18 -24 -14 -5
3 -9 2 -8 -3 3 -20 -2 -33 -12 -30 -6 1 -14 -4 -17 -12 -3 -9 0 -11 9 -6 8 5
11 4 6 -1 -5 -5 -13 -10 -18 -10 -5 -1 -14 -2 -20 -3 -5 0 -7 -5 -4 -11 3 -5
1 -10 -5 -10 -6 0 -8 -5 -5 -10 4 -6 1 -9 -7 -8 -7 2 -12 -3 -11 -9 2 -7 0
-12 -5 -11 -4 2 -19 -10 -34 -25 -15 -15 -24 -27 -20 -27 4 -1 -4 -7 -18 -15
-14 -7 -25 -17 -25 -22 0 -4 -3 -7 -7 -6 -8 3 -12 -13 -9 -30 1 -5 -3 -6 -9
-2 -5 3 -10 2 -10 -4 0 -5 -9 -12 -19 -16 -12 -4 -18 -12 -14 -21 3 -9 -1 -14
-12 -14 -11 0 -15 -5 -12 -14 4 -10 1 -13 -8 -10 -7 3 -16 -3 -20 -15 -3 -12
-13 -21 -22 -21 -13 0 -13 -3 -3 -16 8 -8 9 -14 4 -13 -18 3 -34 -1 -33 -8 3
-20 -2 -34 -11 -28 -6 3 -13 -2 -17 -11 -9 -24 -40 -54 -56 -54 -8 0 -7 -4 3
-10 12 -7 12 -10 1 -10 -7 0 -11 -6 -8 -14 4 -10 1 -13 -9 -9 -9 3 -14 -1 -14
-12 0 -11 -5 -15 -16 -11 -8 3 -12 2 -9 -4 3 -5 -5 -20 -17 -32 -13 -13 -22
-26 -21 -30 2 -4 -6 -12 -17 -18 -12 -6 -17 -16 -14 -22 5 -7 2 -9 -8 -5 -11
4 -15 0 -14 -11 2 -9 -5 -23 -16 -30 -10 -7 -16 -18 -13 -23 4 -5 -1 -9 -9 -9
-8 0 -18 -5 -22 -12 -5 -7 -3 -8 7 -3 11 7 11 5 -1 -11 -8 -10 -23 -27 -35
-37 -11 -10 -13 -16 -5 -12 10 4 9 1 -2 -8 -10 -8 -18 -19 -18 -26 0 -6 -4
-11 -10 -11 -5 0 -10 -10 -10 -22 0 -18 -2 -20 -9 -9 -8 12 -11 9 -16 -12 -4
-15 -13 -27 -21 -27 -8 0 -11 -8 -9 -20 2 -11 0 -18 -6 -15 -5 4 -9 1 -9 -5 0
-6 -4 -8 -10 -5 -6 3 -7 -1 -4 -9 4 -11 0 -16 -12 -16 -16 0 -17 -2 -4 -10 13
-8 12 -10 -4 -10 -11 0 -17 -3 -13 -6 3 -3 -3 -15 -14 -27 -10 -11 -19 -27
-19 -34 0 -7 -4 -13 -9 -13 -5 0 -11 -9 -14 -21 -4 -14 -10 -18 -19 -13 -10 6
-9 3 1 -10 13 -15 12 -18 -7 -22 -11 -4 -19 -11 -16 -18 2 -6 -9 -27 -26 -46
-16 -18 -30 -42 -30 -52 0 -11 -4 -17 -9 -14 -5 3 -12 -5 -15 -19 -4 -15 -14
-25 -24 -25 -13 0 -14 -2 -4 -9 11 -7 10 -9 -3 -15 -9 -3 -13 -10 -10 -16 3
-5 1 -10 -6 -10 -7 0 -10 -3 -6 -6 3 -4 -3 -14 -15 -24 -12 -9 -23 -27 -25
-40 -2 -13 -8 -27 -14 -31 -9 -5 -15 -24 -18 -51 -1 -5 -5 -8 -11 -8 -5 0 -7
8 -4 18 5 14 4 14 -4 2 -8 -10 -8 -18 0 -27 7 -9 6 -14 -6 -19 -9 -3 -14 -10
-11 -14 3 -4 -2 -11 -11 -14 -8 -3 -12 -11 -9 -17 4 -5 -1 -17 -11 -25 -11 -9
-13 -13 -4 -9 8 4 6 -1 -4 -9 -11 -9 -14 -16 -7 -16 7 0 9 -5 6 -10 -4 -6 -11
-8 -16 -5 -5 4 -9 1 -9 -4 0 -19 -3 -26 -20 -41 -9 -8 -10 -11 -2 -6 11 8 11
5 1 -17 -7 -15 -16 -24 -20 -21 -5 3 -9 -4 -9 -16 0 -12 -4 -18 -10 -15 -6 3
-7 -1 -4 -9 3 -9 1 -16 -6 -16 -6 0 -8 -4 -5 -10 3 -5 1 -10 -5 -10 -6 0 -8
-5 -5 -10 3 -5 2 -10 -4 -10 -6 0 -14 -12 -17 -27 -4 -16 -14 -34 -23 -41 -14
-10 -13 -11 4 -6 18 6 18 5 -2 -15 -25 -24 -30 -37 -10 -25 9 6 9 5 0 -8 -7
-8 -9 -19 -5 -23 4 -5 2 -5 -5 -1 -14 8 -22 -4 -25 -37 -1 -14 -5 -24 -9 -22
-9 6 -30 -45 -24 -56 4 -5 -2 -9 -12 -10 -10 0 -13 -3 -5 -6 6 -2 12 -9 12
-14 0 -6 -4 -7 -10 -4 -5 3 -10 -1 -10 -10 0 -9 -4 -13 -10 -10 -6 3 -7 -1 -4
-9 4 -10 1 -16 -7 -16 -11 0 -11 -3 1 -10 12 -7 12 -10 1 -10 -7 0 -11 -6 -8
-14 3 -8 -1 -20 -9 -27 -8 -7 -13 -18 -10 -26 3 -8 2 -12 -3 -9 -9 6 -21 -15
-27 -44 -8 -45 -12 -52 -25 -61 -12 -7 -12 -9 0 -9 11 0 9 -4 -5 -15 -14 -11
-16 -15 -4 -15 12 -1 12 -3 -3 -14 -20 -15 -23 -30 -4 -21 6 4 4 0 -5 -8 -10
-8 -15 -17 -11 -20 3 -4 1 -7 -5 -7 -7 0 -12 -5 -12 -11 0 -5 6 -7 13 -3 6 4
3 -2 -7 -14 -11 -12 -15 -22 -11 -22 5 0 0 -7 -11 -16 -10 -8 -13 -13 -6 -9 6
3 12 1 12 -4 0 -6 -5 -11 -11 -11 -5 0 -7 -4 -4 -10 3 -5 2 -10 -4 -10 -5 0
-8 -11 -7 -25 2 -15 -1 -22 -7 -18 -6 4 -8 0 -4 -10 4 -12 2 -14 -11 -10 -15
6 -15 5 -3 -10 9 -12 10 -17 2 -17 -7 0 -10 -4 -7 -8 3 -5 -2 -22 -10 -37 -8
-16 -13 -37 -11 -47 3 -9 -2 -19 -10 -22 -11 -4 -11 -10 -3 -26 9 -16 8 -22
-5 -26 -9 -4 -14 -13 -11 -21 3 -8 1 -11 -4 -8 -14 9 -12 -8 3 -24 6 -8 7 -11
2 -8 -6 3 -17 -3 -24 -15 -10 -16 -10 -19 1 -12 7 4 5 -1 -4 -12 -14 -16 -15
-23 -6 -32 8 -8 8 -12 1 -12 -6 0 -14 -7 -17 -16 -4 -10 -2 -13 7 -9 6 4 4 0
-5 -8 -10 -8 -15 -17 -11 -21 4 -4 1 -11 -7 -16 -9 -6 -10 -10 -3 -10 15 0 10
-33 -7 -38 -8 -3 -10 0 -5 8 5 9 4 11 -4 6 -6 -4 -8 -13 -4 -19 10 -16 11 -47
2 -47 -9 0 -6 -20 4 -37 6 -9 3 -11 -8 -7 -11 5 -14 2 -9 -10 3 -9 2 -16 -3
-16 -9 0 -13 -22 -13 -72 0 -22 -3 -26 -17 -22 -15 5 -16 4 -3 -5 11 -8 12
-13 3 -22 -6 -6 -9 -17 -7 -24 3 -7 1 -16 -5 -20 -8 -4 -8 -12 0 -27 8 -15 8
-19 0 -13 -8 4 -10 -2 -7 -20 4 -22 3 -25 -9 -15 -12 10 -13 7 -5 -19 5 -19 5
-33 -1 -37 -5 -3 -7 -14 -4 -25 5 -13 2 -19 -10 -19 -9 0 -13 -5 -10 -10 4 -6
10 -8 14 -6 4 3 8 -1 8 -9 0 -8 -4 -12 -8 -9 -10 6 -22 -38 -17 -63 2 -10 -3
-24 -12 -31 -8 -8 -9 -11 -2 -7 14 7 12 -21 -3 -45 -13 -21 -15 -39 -4 -46 6
-3 2 -12 -8 -20 -10 -7 -13 -14 -6 -14 11 0 10 -36 -2 -48 -2 -3 1 -12 8 -20
10 -13 9 -14 -2 -7 -11 6 -13 2 -9 -19 4 -20 2 -24 -7 -16 -10 8 -13 6 -11 -7
0 -10 6 -21 11 -25 6 -5 4 -8 -5 -8 -13 0 -13 -1 0 -10 8 -5 10 -10 4 -10 -7
0 -10 -14 -7 -36 2 -19 0 -33 -5 -30 -5 3 -6 -9 -4 -26 4 -24 2 -29 -9 -23 -8
5 -5 -2 6 -15 19 -22 19 -23 1 -17 -18 7 -18 6 -2 -18 14 -21 14 -24 1 -19
-11 5 -13 2 -8 -12 4 -11 3 -15 -4 -11 -13 8 -5 -43 10 -61 7 -9 6 -11 -4 -7
-11 4 -14 -10 -13 -72 0 -43 -4 -87 -10 -98 -13 -27 -15 -195 -1 -187 5 3 5
-1 -1 -9 -16 -20 -18 -503 -3 -493 8 4 8 1 1 -13 -8 -15 -9 -83 -3 -156 1 -5
5 -6 9 -3 5 3 9 -2 9 -10 0 -8 -5 -13 -12 -11 -6 3 -11 -6 -10 -23 0 -18 4
-26 12 -23 7 3 13 0 13 -6 0 -6 -5 -11 -11 -11 -5 0 -7 -5 -4 -11 10 -15 14
-59 5 -54 -4 2 -7 -2 -7 -10 0 -8 4 -12 9 -9 12 8 10 -10 -4 -24 -8 -8 -8 -12
-1 -12 6 0 10 -17 10 -38 0 -21 3 -43 7 -50 4 -7 2 -12 -5 -12 -8 0 -8 -4 1
-15 7 -8 9 -15 4 -15 -5 0 -2 -5 6 -10 13 -9 13 -10 0 -10 -13 0 -13 -1 0 -10
11 -7 11 -10 2 -10 -7 0 -10 -5 -7 -10 4 -6 9 -8 13 -6 4 2 6 -25 5 -60 -1
-35 3 -64 8 -64 6 0 5 -8 -1 -20 -6 -11 -7 -20 -2 -20 4 0 8 -23 9 -51 0 -32
6 -55 14 -60 12 -7 12 -9 0 -9 -11 0 -11 -3 -1 -15 10 -12 10 -15 0 -15 -8 0
-9 -4 -3 -12 14 -18 14 -60 1 -52 -7 4 -8 2 -4 -4 4 -7 15 -12 24 -13 11 0 12
-3 5 -6 -7 -2 -13 -9 -13 -14 0 -6 6 -7 12 -3 10 6 11 4 1 -7 -7 -7 -13 -18
-13 -23 0 -6 5 -4 10 4 7 11 10 6 10 -20 0 -20 6 -42 13 -49 9 -11 9 -13 0 -7
-7 4 -13 2 -13 -3 0 -6 4 -11 8 -11 9 0 10 -2 16 -75 2 -27 7 -58 11 -67 4 -9
4 -21 1 -27 -4 -5 2 -14 11 -20 12 -7 13 -10 4 -11 -11 0 -11 -3 -1 -15 7 -8
9 -15 4 -15 -5 0 -2 -5 6 -10 12 -8 12 -10 1 -10 -11 0 -10 -4 2 -23 10 -16
12 -29 6 -39 -6 -11 -5 -19 2 -24 8 -5 9 -3 4 6 -5 8 -4 11 3 7 5 -4 8 -16 5
-28 -3 -11 -1 -30 4 -42 24 -53 31 -86 19 -90 -8 -3 -7 -9 3 -20 7 -9 18 -14
23 -11 6 4 5 -3 -1 -15 -10 -17 -9 -22 4 -28 13 -5 14 -7 3 -14 -10 -7 -10 -9
2 -9 13 0 13 -1 0 -10 -12 -8 -12 -10 5 -10 17 0 17 -2 5 -10 -12 -8 -12 -10
5 -10 17 0 17 -2 5 -10 -9 -5 -10 -10 -3 -10 7 0 9 -11 7 -30 -4 -21 -1 -30 9
-30 10 0 13 -8 9 -26 -3 -17 -1 -25 5 -21 6 4 9 -8 8 -29 -1 -20 3 -38 10 -40
6 -3 12 -14 13 -27 1 -12 3 -31 5 -42 1 -11 8 -25 16 -31 8 -6 11 -16 7 -22
-4 -7 -1 -12 6 -12 9 0 9 -3 -2 -10 -13 -9 -13 -10 0 -11 8 -1 19 -1 24 0 5 1
4 -5 -4 -13 -10 -13 -10 -16 0 -16 9 0 9 -4 -1 -17 -10 -11 -10 -14 -2 -9 8 4
13 1 13 -9 0 -10 5 -13 12 -9 6 4 8 3 4 -4 -3 -6 -2 -13 3 -16 5 -3 7 -15 4
-26 -3 -12 0 -20 7 -20 8 0 10 -8 7 -21 -3 -12 0 -22 8 -25 7 -3 12 -14 10
-25 -2 -10 0 -19 6 -19 5 0 9 5 9 12 0 6 3 8 6 5 4 -4 1 -13 -6 -22 -7 -8 -8
-15 -3 -15 5 0 9 -10 10 -22 1 -12 9 -25 17 -30 8 -4 13 -19 11 -33 -1 -14 1
-25 6 -25 5 0 6 -7 3 -15 -5 -11 -2 -13 12 -8 11 4 15 3 11 -4 -9 -15 3 -74
14 -67 5 3 9 -4 9 -15 0 -12 6 -21 13 -21 8 0 7 -4 -3 -10 -13 -8 -13 -10 2
-10 11 0 15 -7 14 -25 -2 -13 0 -22 4 -20 13 8 30 -20 25 -43 -2 -12 1 -25 7
-28 7 -5 8 -2 3 6 -5 9 -4 11 3 6 7 -4 12 -18 12 -32 0 -13 5 -24 11 -24 5 0
7 -5 4 -10 -3 -6 -1 -10 5 -10 6 0 8 -4 5 -10 -3 -5 -2 -10 4 -10 5 0 8 -9 6
-20 -2 -11 1 -19 8 -17 6 1 12 -4 13 -10 1 -7 2 -18 3 -24 0 -5 6 -7 13 -3 7
4 8 3 4 -5 -4 -6 -2 -19 6 -28 9 -12 9 -15 1 -9 -9 5 -11 2 -7 -8 3 -9 10 -13
15 -10 5 3 9 -4 9 -16 0 -12 4 -19 8 -16 8 5 10 -1 14 -43 1 -11 6 -17 10 -15
4 3 8 -2 8 -11 0 -8 6 -18 14 -21 8 -3 13 -11 10 -18 -2 -6 5 -21 16 -33 11
-12 20 -26 20 -32 0 -5 6 -12 13 -14 9 -4 9 -6 -1 -6 -7 -1 0 -13 16 -28 15
-16 19 -21 9 -13 -20 15 -20 15 -2 -12 9 -16 22 -28 27 -28 6 0 8 -6 5 -13 -3
-8 3 -20 14 -27 12 -9 15 -16 7 -21 -6 -4 -2 -10 11 -14 18 -5 20 -9 10 -21
-9 -11 -8 -14 4 -14 9 0 19 -5 23 -12 5 -7 2 -9 -7 -4 -8 4 -4 -1 8 -12 17
-15 19 -22 10 -32 -9 -10 -9 -11 0 -6 8 4 13 1 13 -9 0 -8 7 -18 15 -21 8 -4
12 -10 10 -15 -3 -4 3 -17 14 -28 11 -11 17 -22 13 -25 -3 -3 0 -6 7 -6 8 0
11 -6 7 -16 -3 -8 -2 -13 3 -10 4 3 17 -4 27 -17 19 -21 19 -21 -1 -7 -19 14
-2 -9 43 -58 7 -8 11 -21 8 -29 -3 -8 -2 -12 3 -9 5 3 15 -2 22 -11 12 -14 12
-16 0 -8 -10 5 -12 4 -7 -3 4 -7 13 -12 21 -12 8 0 11 -7 8 -19 -3 -10 1 -22
8 -26 8 -6 10 -4 4 5 -5 9 -4 11 3 6 7 -4 12 -14 12 -22 0 -8 5 -14 11 -14 5
0 7 -5 4 -10 -3 -6 -1 -10 4 -10 6 0 11 -6 11 -14 0 -8 7 -17 16 -20 9 -4 14
-13 10 -22 -3 -8 -2 -12 4 -9 5 3 14 -4 20 -15 6 -11 7 -20 3 -20 -4 0 7 -13
25 -29 22 -19 28 -31 20 -34 -9 -4 -8 -6 3 -6 9 -1 21 -13 27 -27 7 -14 17
-22 22 -19 5 3 7 0 4 -9 -3 -8 3 -19 15 -26 12 -6 21 -17 21 -24 0 -8 7 -17
16 -20 10 -4 14 -12 10 -22 -4 -12 -1 -14 14 -9 15 5 18 3 14 -9 -4 -11 0 -16
12 -17 11 0 14 -3 7 -5 -8 -4 -7 -11 4 -24 9 -10 21 -16 27 -13 6 3 8 3 4 -2
-4 -4 0 -14 10 -22 9 -8 11 -11 3 -7 -10 5 -12 3 -7 -5 5 -7 14 -10 22 -7 8 3
11 0 7 -10 -3 -8 8 -26 26 -43 16 -15 27 -31 24 -35 -3 -3 2 -6 13 -6 16 0 17
-2 4 -10 -11 -7 -11 -10 -2 -10 7 0 10 -4 7 -10 -3 -6 1 -7 9 -4 11 4 16 0 16
-10 0 -9 5 -16 11 -16 5 0 7 -4 4 -10 -3 -5 1 -10 10 -10 9 0 13 -4 10 -10 -3
-5 1 -10 9 -10 8 0 18 -9 21 -20 3 -11 11 -20 16 -20 6 0 7 -4 4 -10 -3 -5 3
-10 14 -10 12 0 20 -3 19 -8 -2 -4 7 -18 19 -31 12 -13 20 -29 16 -34 -3 -6
-2 -7 4 -4 11 7 44 -28 35 -38 -4 -4 -2 -6 3 -5 6 1 17 2 25 1 13 -1 13 -2 0
-11 -13 -8 -13 -10 2 -10 9 0 20 -9 23 -20 3 -11 13 -20 21 -20 13 0 19 -13
15 -34 -1 -5 5 -3 14 4 13 11 15 10 9 -3 -3 -10 2 -21 15 -29 12 -7 21 -19 21
-26 0 -7 5 -10 10 -7 6 3 10 -1 10 -9 0 -9 7 -16 16 -16 10 0 14 -6 11 -15 -4
-8 -2 -17 3 -20 6 -4 10 -1 10 5 0 7 5 6 14 -2 8 -7 12 -16 10 -19 -2 -4 3
-10 12 -13 8 -3 12 -10 9 -16 -3 -6 1 -7 9 -4 11 4 19 -2 25 -17 4 -13 12 -23
17 -23 5 1 8 -2 6 -7 -1 -5 7 -9 18 -9 11 0 19 -6 18 -12 -2 -7 3 -12 10 -10
6 1 12 -4 12 -11 0 -14 56 -67 71 -67 5 0 9 -8 9 -17 0 -15 2 -16 10 -3 9 13
10 13 11 0 1 -8 1 -19 0 -23 -1 -5 2 -6 7 -3 4 2 16 -6 26 -19 10 -14 21 -23
25 -21 3 2 12 -2 19 -10 7 -8 10 -14 7 -14 -4 0 0 -7 9 -15 8 -8 19 -15 25
-15 6 0 11 -4 11 -10 0 -5 6 -10 14 -10 8 0 18 -9 21 -20 3 -11 13 -20 21 -20
8 0 14 -4 14 -9 0 -5 9 -13 20 -16 11 -3 20 -14 21 -23 0 -10 3 -12 6 -5 3 8
12 5 29 -10 57 -51 64 -57 70 -57 4 0 19 -12 33 -27 15 -16 39 -34 54 -42 15
-8 27 -20 27 -28 0 -7 7 -13 15 -13 9 0 18 -6 21 -14 3 -9 12 -12 21 -9 11 4
14 2 9 -5 -4 -7 0 -15 11 -19 10 -4 26 -16 36 -28 10 -11 16 -13 12 -5 -4 8 2
4 13 -9 12 -15 24 -21 32 -16 8 5 11 4 6 -3 -3 -6 -2 -13 4 -17 5 -3 10 0 10
7 1 7 8 0 16 -17 8 -16 12 -22 9 -12 -2 9 0 17 5 17 6 0 10 -9 10 -20 0 -13 5
-18 15 -14 9 4 18 -1 21 -11 4 -9 12 -14 19 -11 6 2 18 -4 25 -14 8 -11 17
-17 22 -14 4 3 8 -2 8 -11 0 -9 4 -13 10 -10 5 3 10 1 10 -5 0 -6 5 -8 10 -5
6 3 10 -2 11 -12 0 -10 3 -13 6 -6 3 10 8 10 19 -1 8 -8 14 -20 14 -26 0 -6 5
-8 11 -5 6 4 22 -4 36 -16 15 -13 23 -17 19 -9 -4 8 1 5 11 -8 10 -13 29 -24
41 -25 12 -1 22 -7 22 -14 0 -7 12 -16 28 -19 15 -4 34 -15 43 -25 9 -10 19
-16 23 -12 3 3 6 1 6 -5 0 -7 5 -12 11 -12 5 0 7 6 3 13 -4 6 2 4 14 -7 12
-10 19 -23 15 -29 -4 -6 0 -8 9 -4 9 3 21 0 28 -6 10 -9 11 -9 5 2 -5 9 -4 12
3 7 7 -4 12 -13 12 -21 0 -8 7 -11 20 -8 13 4 20 0 20 -10 0 -8 8 -14 17 -13
10 0 18 -4 18 -11 0 -6 4 -15 9 -20 5 -5 6 -3 2 5 -4 6 -2 12 3 12 6 0 11 -5
11 -11 0 -5 4 -7 10 -4 5 3 21 -5 35 -19 14 -14 25 -20 25 -15 0 6 7 3 16 -5
8 -9 21 -13 27 -9 6 4 8 0 4 -10 -4 -12 -2 -14 10 -10 12 5 14 3 8 -7 -5 -8
-4 -11 3 -7 15 10 43 -3 35 -17 -4 -6 2 -4 12 4 11 9 16 10 11 3 -6 -12 5 -18
27 -14 4 0 7 -4 7 -9 0 -6 7 -10 15 -10 8 0 15 -4 15 -10 0 -5 5 -10 11 -10 5
0 7 6 4 13 -4 6 2 2 13 -10 15 -17 22 -19 32 -10 10 9 11 9 6 0 -5 -9 0 -13
13 -13 10 0 21 -5 23 -11 2 -7 17 -13 32 -13 16 -1 33 -8 40 -16 6 -8 18 -16
26 -18 8 -2 18 -8 21 -14 4 -6 9 -5 12 3 3 9 6 7 6 -6 1 -17 3 -17 11 -5 8 13
10 12 10 -2 0 -13 8 -18 31 -18 17 0 28 -4 24 -10 -8 -14 8 -13 22 1 8 8 11 6
10 -7 -1 -11 4 -19 13 -19 8 0 18 -4 22 -10 5 -6 8 -4 8 5 1 10 4 7 10 -6 6
-16 16 -20 45 -19 27 2 35 -1 31 -12 -4 -10 1 -12 19 -9 14 3 25 0 25 -6 0 -6
3 -8 7 -5 3 4 12 -1 20 -11 9 -10 11 -11 7 -2 -7 13 -5 13 9 2 9 -8 21 -11 27
-7 5 3 10 1 10 -6 0 -7 3 -10 6 -6 4 3 13 -1 21 -9 9 -8 23 -12 31 -9 8 3 19
0 24 -7 6 -10 10 -10 18 2 5 8 10 10 10 5 0 -6 -4 -15 -10 -20 -6 -7 3 -10 23
-9 35 2 70 -12 63 -25 -3 -4 8 -6 25 -5 21 1 29 -2 29 -14 0 -15 2 -15 10 -2
5 8 10 10 10 3 0 -6 11 -10 25 -8 14 1 25 -1 25 -6 0 -4 8 -7 18 -7 9 0 26 -3
36 -7 14 -6 17 -5 12 3 -5 8 -2 10 8 6 9 -3 13 -11 10 -16 -4 -6 3 -5 15 1 12
7 21 8 21 2 0 -5 8 -8 18 -6 9 2 21 4 25 4 5 1 6 5 2 10 -3 5 0 13 6 17 7 4 9
3 6 -3 -4 -6 0 -16 8 -23 13 -11 14 -10 10 2 -5 12 0 14 19 11 14 -3 26 -1 26
5 0 5 10 9 23 8 17 -1 21 4 19 19 -2 16 -1 17 7 5 9 -13 12 -12 26 5 9 11 13
13 9 5 -4 -8 3 -5 15 8 12 12 26 22 32 22 6 0 7 5 4 10 -3 6 1 10 10 10 9 0
14 4 10 9 -3 5 -1 12 5 16 6 4 8 11 5 16 -3 5 1 6 10 3 13 -5 15 -1 11 19 -3
20 -1 25 11 20 11 -4 14 -2 9 5 -4 7 -3 12 3 12 6 0 8 7 5 15 -4 8 -1 15 6 15
9 0 10 3 1 14 -9 10 -8 15 2 19 15 6 16 34 2 56 -5 9 -4 12 3 7 6 -3 13 -2 17
4 3 5 1 10 -5 10 -7 0 -9 8 -4 22 6 21 5 22 -12 8 -11 -8 -9 -2 6 14 14 16 20
27 15 23 -6 -3 -17 4 -25 16 -12 20 -12 21 3 9 10 -9 17 -10 22 -2 3 5 1 10
-5 10 -6 0 -8 5 -4 12 11 17 12 48 3 48 -4 0 -9 -3 -12 -7 -2 -5 -2 -2 0 6 2
8 -2 19 -9 24 -10 6 -9 7 4 4 9 -3 19 1 22 9 3 8 2 13 -3 10 -5 -3 -12 1 -15
10 -4 9 -2 13 5 8 7 -4 10 -1 7 7 -3 8 -11 13 -17 11 -7 -1 -10 2 -6 8 3 5 13
10 22 10 12 0 12 3 -4 18 -10 9 -13 13 -6 8 17 -11 17 6 1 23 -11 12 -9 13 7
7 20 -6 20 -6 1 9 -12 9 -15 15 -7 15 11 0 11 3 1 15 -11 13 -10 14 5 9 15 -6
15 -4 4 14 -7 11 -17 18 -23 15 -5 -3 -6 -1 -2 6 4 6 12 9 17 6 5 -4 9 -1 9 4
0 6 -6 11 -12 11 -7 0 -5 5 5 11 14 8 16 14 7 24 -7 8 -9 19 -5 26 4 6 1 15
-6 20 -8 5 -9 9 -3 9 6 0 10 10 9 22 -1 13 3 30 9 38 9 13 9 13 -6 2 -14 -12
-16 -10 -11 10 4 13 11 26 17 30 7 5 7 8 1 8 -15 0 -16 73 -1 83 6 5 0 6 -14
2 -21 -5 -23 -4 -10 7 21 18 21 48 1 49 -10 0 -11 2 -3 6 15 6 16 33 1 33 -6
0 -3 7 6 16 15 15 15 18 -1 36 -13 13 -14 17 -3 13 11 -4 14 4 14 34 1 30 -3
38 -15 34 -9 -3 -6 3 7 15 19 17 20 21 7 26 -10 4 -13 2 -8 -6 4 -7 3 -8 -5
-4 -8 5 -7 13 4 28 11 16 12 25 3 35 -7 9 -7 13 1 13 6 0 11 4 11 10 0 5 -7 7
-15 4 -10 -4 -13 0 -10 16 2 13 7 25 11 29 4 3 4 -3 0 -14 -5 -14 -4 -17 4 -9
14 14 2 46 -14 37 -6 -4 -5 1 3 10 11 14 11 17 0 17 -11 0 -11 3 1 11 12 8 12
12 2 16 -10 4 -9 9 5 19 10 8 14 14 8 13 -24 -3 -28 2 -10 14 14 11 15 16 5
22 -9 6 -11 4 -5 -5 6 -9 4 -11 -4 -5 -9 5 -10 10 -2 18 15 15 14 30 -1 21
-10 -5 -10 -4 -1 6 10 11 9 16 -5 27 -16 12 -15 13 3 7 19 -5 19 -5 1 6 -13 9
-20 9 -25 1 -4 -6 -28 -12 -53 -14 -25 -1 -53 -9 -62 -16 -14 -12 -16 -12 -11
0 4 10 -1 15 -14 15 -15 0 -17 -3 -9 -13 9 -11 6 -12 -17 -3 -24 9 -26 8 -16
-3 9 -12 6 -14 -16 -10 -16 2 -35 4 -43 3 -8 0 -25 0 -38 0 -16 0 -21 -4 -16
-13 5 -9 4 -9 -6 0 -15 14 -43 6 -33 -10 3 -6 1 -7 -6 -3 -9 6 -9 11 0 22 16
20 4 17 -17 -3 -21 -22 -47 -26 -40 -8 3 9 0 12 -9 8 -8 -3 -13 -9 -10 -13 8
-13 -21 -6 -39 9 -14 12 -16 12 -11 0 4 -10 -2 -15 -15 -16 -13 -1 -18 2 -13
10 4 7 0 6 -10 -2 -11 -9 -17 -10 -17 -2 0 6 -5 11 -11 11 -5 0 -7 -5 -4 -11
5 -7 -3 -9 -24 -6 -17 3 -33 1 -37 -4 -3 -5 -11 -6 -17 -2 -20 12 -47 14 -47
2 0 -5 -5 -7 -10 -4 -6 4 -7 12 -4 18 5 8 3 8 -7 0 -7 -7 -17 -13 -22 -13 -4
0 -5 6 -1 13 5 9 4 9 -6 0 -8 -8 -20 -9 -37 -2 -13 5 -22 5 -19 1 3 -5 -1 -9
-9 -9 -8 0 -12 4 -9 9 6 10 -10 11 -20 1 -9 -9 -46 -11 -41 -2 3 4 -2 10 -11
13 -8 3 -13 2 -10 -3 3 -5 -1 -12 -9 -15 -9 -3 -18 1 -21 9 -4 8 -10 15 -16
15 -5 0 -6 -4 -3 -10 3 -6 -1 -7 -9 -4 -9 3 -13 10 -10 15 3 5 -2 6 -10 3 -9
-3 -13 -10 -10 -15 3 -5 -6 -5 -20 1 -14 5 -26 6 -26 2 0 -4 -5 0 -10 8 -8 13
-10 13 -10 1 0 -12 -3 -12 -12 -3 -8 8 -15 8 -24 1 -8 -7 -14 -7 -19 1 -3 5
-24 10 -46 10 -21 0 -39 4 -39 8 0 5 -21 8 -47 7 -27 -1 -54 3 -60 8 -9 6 -13
5 -13 -3 0 -9 -6 -8 -19 4 -11 10 -24 15 -30 12 -5 -3 -12 0 -14 6 -4 10 -6
10 -6 0 -1 -9 -6 -10 -20 -3 -10 6 -21 7 -25 4 -3 -3 -6 -1 -6 7 0 10 -3 10
-14 1 -11 -9 -16 -9 -22 0 -5 8 -3 9 6 4 9 -5 11 -4 6 4 -6 9 -11 9 -21 1 -9
-8 -14 -6 -19 5 -3 9 -10 14 -16 10 -5 -3 -19 -1 -30 5 -12 6 -31 13 -42 15
-12 3 -25 10 -30 17 -6 10 -8 9 -8 -2 -1 -12 -3 -12 -11 2 -5 10 -16 15 -24
12 -8 -4 -15 -1 -15 6 0 10 -3 10 -14 1 -11 -9 -14 -8 -12 6 1 12 -5 17 -17
15 -11 -2 -28 5 -39 15 -11 10 -22 17 -24 16 -13 -9 -25 -1 -20 12 3 9 1 15
-7 14 -26 -3 -38 1 -31 12 4 8 -1 9 -16 4 -12 -4 -20 -3 -18 1 3 5 -3 17 -13
26 -12 12 -19 13 -23 5 -2 -7 -5 -4 -5 6 -1 9 -8 17 -16 17 -8 0 -15 4 -15 10
0 5 -7 7 -15 4 -10 -4 -15 0 -15 15 0 12 -3 20 -7 19 -15 -4 -53 23 -53 37 0
9 -6 12 -17 8 -10 -4 -14 -2 -9 5 8 13 -28 35 -39 24 -3 -4 -6 -2 -5 3 5 23
-2 35 -27 50 -16 9 -19 13 -8 10 20 -6 20 -6 0 13 -11 11 -23 18 -27 15 -5 -2
-8 3 -8 11 0 9 -5 16 -11 16 -5 0 -7 5 -4 10 3 6 -1 10 -9 10 -19 0 -21 16 -3
24 6 3 3 4 -8 3 -12 -1 -21 5 -23 18 -3 11 -13 27 -23 36 -14 12 -16 18 -6 29
10 10 8 12 -9 8 -12 -3 -21 -1 -21 6 0 6 -1 22 -2 36 -1 20 -3 22 -11 10 -7
-11 -10 -7 -10 18 0 24 -4 31 -12 26 -8 -5 -8 -2 1 10 8 9 10 16 5 15 -27 -5
-36 1 -24 16 9 10 9 15 1 15 -6 0 -11 11 -11 24 0 13 -7 29 -15 36 -8 7 -12
16 -9 21 3 5 1 9 -4 9 -6 0 -13 7 -16 16 -4 10 -2 13 7 9 6 -4 4 0 -6 8 -14
11 -15 16 -5 20 9 4 8 6 -4 6 -11 1 -15 7 -11 24 4 18 3 19 -7 7 -10 -12 -11
-11 -7 8 3 12 1 22 -5 22 -5 0 -6 4 -3 10 3 5 1 10 -4 10 -6 0 -11 9 -11 20 0
11 -4 20 -10 20 -5 0 -10 7 -10 15 0 8 -6 15 -12 15 -9 0 -8 4 2 10 13 8 12
10 -4 10 -11 0 -16 3 -13 7 4 3 2 12 -4 19 -6 8 -8 21 -5 30 6 15 4 15 -11 3
-10 -9 -14 -9 -10 -2 5 7 -2 22 -14 34 -13 13 -16 20 -7 17 8 -4 15 -1 15 7 0
8 -7 11 -15 7 -10 -3 -13 -1 -8 6 4 7 2 12 -3 12 -6 0 -11 7 -11 15 0 8 -4 15
-10 15 -5 0 -10 9 -10 21 0 11 -5 17 -10 14 -9 -5 -14 7 -11 27 0 4 -8 10 -19
13 -12 4 -17 12 -13 22 4 10 2 14 -5 9 -13 -8 -26 29 -16 45 4 8 3 9 -5 5 -14
-9 -39 15 -33 32 2 6 -3 12 -12 12 -9 0 -16 8 -16 20 0 11 -4 20 -9 20 -5 0
-12 9 -16 20 -3 11 -12 19 -18 17 -7 -1 -11 4 -9 11 1 6 -3 12 -9 12 -5 0 -7
5 -4 10 4 6 3 10 -2 9 -22 -4 -33 3 -33 21 0 12 -7 20 -17 20 -9 0 -14 3 -11
6 7 7 -39 54 -53 54 -6 0 -7 5 -4 10 3 6 -1 10 -9 10 -15 0 -21 12 -17 34 1 5
-5 4 -13 -4 -13 -10 -16 -10 -16 4 0 9 -5 16 -11 16 -5 0 -7 4 -4 10 3 6 -1 7
-9 4 -9 -3 -16 -1 -16 6 0 6 -5 8 -10 5 -6 -3 -10 2 -10 12 0 15 -2 16 -10 3
-8 -13 -10 -13 -10 1 0 18 -26 33 -42 23 -5 -3 -12 3 -15 15 -3 11 -9 18 -14
15 -5 -3 -9 1 -9 8 0 11 -2 10 -9 0 -7 -11 -9 -10 -15 3 -3 10 -11 13 -18 9
-7 -4 -10 -4 -6 0 8 10 -14 36 -24 29 -5 -2 -8 1 -8 7 0 6 -5 8 -10 5 -6 -4
-9 -1 -8 7 2 7 -3 12 -10 10 -6 -1 -12 4 -12 11 0 8 -9 22 -20 32 -11 10 -20
14 -20 10 0 -5 -9 1 -20 13 -11 12 -20 28 -20 37 0 8 -7 15 -15 15 -8 0 -14 6
-13 13 2 6 -3 11 -10 9 -8 -1 -11 2 -8 7 4 5 1 13 -5 16 -5 4 -8 14 -5 22 4
10 2 13 -8 10 -8 -3 -17 1 -20 9 -3 8 -1 14 5 14 6 0 7 5 3 12 -10 16 -12 58
-2 52 4 -3 8 0 8 7 0 7 3 10 6 6 3 -3 17 6 31 21 25 28 29 28 51 10 9 -8 11
-7 7 5 -4 8 -1 18 6 23 8 4 10 3 5 -4 -4 -7 -3 -12 2 -12 6 0 13 7 16 16 5 12
10 14 20 5 7 -6 16 -8 20 -4 4 4 11 1 16 -7 8 -13 10 -12 10 3 0 20 1 20 34 7
19 -7 26 -6 26 3 0 8 4 7 10 -3 5 -8 10 -10 10 -3 0 13 18 12 39 -1 10 -7 12
-6 6 4 -6 10 -4 12 11 6 10 -4 24 -9 30 -10 7 -1 20 -8 30 -16 18 -14 18 -14
5 3 -12 15 -11 17 5 14 11 -2 29 -8 41 -15 28 -15 36 -15 27 1 -5 8 -2 8 9 -2
9 -7 17 -10 17 -5 0 5 4 4 8 -1 4 -6 19 -16 35 -22 21 -10 27 -10 27 0 0 8 3
8 9 -2 5 -8 14 -10 22 -5 11 6 12 5 2 -7 -10 -12 -8 -15 7 -15 10 0 16 5 14
11 -3 5 2 1 10 -9 12 -15 16 -16 16 -5 1 10 4 9 11 -4 8 -14 14 -15 24 -7 10
8 15 8 21 -1 5 -8 3 -10 -7 -5 -8 4 -5 0 5 -8 11 -9 26 -16 33 -16 7 0 13 -4
13 -10 0 -5 8 -10 18 -10 9 0 30 -11 46 -25 16 -13 33 -22 37 -19 5 3 9 0 9
-6 0 -6 4 -8 10 -5 6 3 10 -1 10 -10 0 -9 4 -14 9 -10 5 3 12 1 16 -4 3 -6 13
-7 22 -4 10 4 14 2 10 -4 -9 -15 19 -36 35 -27 7 4 10 4 6 -1 -5 -5 6 -17 23
-27 17 -11 27 -23 23 -30 -4 -6 -3 -8 4 -5 13 9 44 -2 37 -13 -2 -4 7 -13 20
-20 13 -7 22 -17 19 -22 -3 -4 2 -8 11 -8 9 0 13 -5 10 -10 -3 -5 1 -10 9 -10
14 0 20 -11 18 -31 -1 -4 6 -6 16 -5 9 0 16 -5 14 -11 -1 -7 5 -13 14 -13 8 0
13 -4 10 -8 -3 -5 4 -15 15 -22 10 -8 19 -20 19 -28 0 -7 4 -11 9 -8 4 3 13
-6 19 -19 7 -14 16 -25 22 -25 5 0 10 -7 10 -16 0 -8 4 -12 10 -9 9 5 15 -15
11 -37 0 -5 6 -8 15 -8 8 0 12 -4 9 -10 -6 -9 8 -14 28 -11 5 1 6 -3 2 -9 -8
-14 4 -52 15 -45 4 3 7 -6 6 -19 -2 -16 2 -23 13 -22 9 0 15 -5 13 -11 -1 -7
3 -13 9 -13 5 0 7 -4 4 -10 -3 -5 1 -10 10 -10 9 0 14 -4 10 -9 -3 -5 -1 -12
4 -16 6 -3 8 -12 4 -21 -3 -9 0 -14 8 -12 9 2 13 -4 11 -16 -2 -11 1 -15 7
-11 6 3 11 1 11 -5 0 -6 4 -8 10 -5 5 3 8 0 5 -7 -3 -7 6 -22 20 -32 14 -10
25 -28 25 -38 0 -14 5 -18 16 -14 12 4 15 2 10 -9 -3 -8 -2 -15 3 -15 5 0 11
-9 14 -20 3 -11 16 -24 30 -29 24 -9 54 -47 49 -63 -1 -4 8 -5 19 -3 14 3 19
0 16 -9 -6 -14 21 -41 59 -58 13 -6 24 -18 24 -26 0 -8 6 -12 14 -9 9 4 17 -2
21 -14 4 -10 15 -19 26 -19 11 0 19 -7 19 -16 0 -8 5 -12 10 -9 6 3 10 1 10
-5 0 -6 4 -8 10 -5 5 3 10 -1 10 -9 0 -9 3 -15 8 -15 19 3 33 -2 27 -11 -3 -6
1 -7 9 -4 9 4 16 1 16 -6 0 -6 6 -10 13 -7 6 2 19 -3 27 -12 8 -9 22 -16 30
-16 8 0 14 -5 13 -11 -1 -5 9 -11 23 -12 46 -3 53 -5 48 -14 -5 -7 10 -12 29
-9 4 0 7 -3 7 -9 0 -5 7 -7 15 -4 9 4 15 0 15 -7 0 -12 2 -12 9 -1 7 11 9 10
15 -3 3 -9 11 -13 16 -10 6 4 18 1 27 -7 15 -11 16 -11 10 7 -7 20 -7 20 8 1
16 -21 50 -32 38 -13 -4 7 1 6 10 -2 11 -8 41 -14 77 -13 39 0 60 -4 60 -11 0
-7 5 -5 10 3 9 13 11 13 20 0 5 -8 10 -10 10 -4 0 14 33 14 42 0 6 -8 8 -8 8
0 0 7 30 10 85 10 50 -1 85 3 85 9 0 6 5 3 10 -5 8 -12 10 -12 10 -1 0 11 3
11 15 1 9 -7 15 -8 15 -2 0 5 10 8 22 4 12 -3 19 -1 15 5 -3 5 0 10 8 10 8 0
12 -3 10 -7 -2 -4 2 -7 10 -7 8 0 12 3 10 7 -2 3 4 11 14 17 14 9 18 8 18 -3
0 -7 -5 -10 -10 -7 -6 4 -7 1 -2 -7 7 -11 10 -10 19 1 6 8 20 14 31 13 11 0
29 4 39 9 15 7 18 6 13 -6 -4 -12 -1 -12 18 -3 16 7 20 13 12 18 -19 12 2 9
25 -3 15 -8 19 -8 14 0 -7 11 5 15 38 11 13 -1 16 2 10 12 -6 10 -4 10 9 -1
11 -9 17 -10 17 -2 0 6 6 10 13 9 6 -2 11 2 10 9 -2 7 4 10 12 7 8 -4 12 -11
9 -18 -3 -6 2 -2 10 8 12 15 16 16 16 5 0 -12 2 -12 9 0 5 7 13 11 19 7 6 -3
15 2 21 11 6 10 11 14 11 9 0 -5 8 -2 17 5 9 8 14 9 10 2 -10 -17 19 -10 41
10 10 9 28 17 40 17 11 0 26 8 31 18 6 9 11 13 11 9 0 -4 9 -3 21 3 11 7 18
17 16 25 -3 7 2 23 10 36 9 12 12 19 6 16 -7 -4 -10 0 -9 10 2 9 8 19 15 21 9
3 9 7 0 18 -7 9 -8 14 -1 14 5 0 8 9 5 21 -3 12 0 25 7 29 7 5 14 17 15 27 0
10 4 24 8 30 4 6 3 14 -2 17 -13 9 -1 47 13 39 6 -3 8 -2 3 2 -4 5 0 19 8 31
9 15 11 25 5 29 -6 4 -8 11 -4 16 3 5 11 6 17 2 7 -4 5 2 -3 12 -9 11 -10 16
-2 11 8 -5 12 0 12 16 0 24 13 50 24 49 15 -2 16 0 6 19 -8 14 -8 20 0 20 6 0
9 4 6 9 -3 5 1 11 9 15 8 3 12 12 9 21 -3 8 -1 15 6 15 6 0 8 5 5 10 -3 6 1
10 9 10 9 0 16 5 16 11 0 5 -6 7 -12 3 -9 -5 -9 -3 1 9 7 9 18 14 24 10 5 -3
7 -1 4 4 -6 10 19 73 29 73 3 0 2 -5 -2 -12 -4 -7 -3 -8 5 -4 6 4 9 11 6 16
-10 15 6 41 19 31 9 -8 12 -3 10 19 -1 18 3 28 10 27 6 -1 10 4 8 12 -2 9 3
11 13 7 9 -3 13 -2 10 4 -3 6 -1 10 5 10 6 0 8 5 4 12 -5 7 -2 9 9 5 11 -4 14
-2 11 7 -3 7 2 16 11 20 10 3 13 11 9 18 -5 9 -2 8 9 -1 15 -12 17 -12 11 3
-4 10 0 18 10 22 9 3 13 10 10 15 -3 5 2 9 10 9 8 0 18 5 22 12 5 7 3 8 -6 3
-10 -6 -12 -4 -7 8 5 13 0 15 -29 13 -19 -2 -37 0 -40 5 -3 5 -10 9 -15 9 -6
0 -8 -4 -5 -9 7 -10 -9 -8 -37 4 -10 4 -24 2 -35 -6 -14 -11 -15 -11 -4 1 17
20 15 35 -3 20 -12 -10 -15 -10 -15 0 0 9 -3 10 -13 1 -10 -8 -17 -7 -27 2
-10 10 -11 9 -5 -3 7 -12 6 -13 -6 -4 -12 9 -39 14 -96 17 -7 0 -13 3 -13 7 0
4 -10 6 -22 5 -13 -1 -35 2 -50 6 -17 4 -28 3 -30 -3 -2 -6 -11 -3 -21 6 -9
10 -17 13 -17 7 0 -6 -5 -11 -11 -11 -5 0 -7 5 -4 10 3 6 1 10 -4 10 -6 0 -11
-5 -11 -11 0 -6 -7 -4 -15 5 -8 8 -24 13 -35 11 -11 -2 -20 0 -20 4 0 4 -7 8
-15 8 -8 0 -15 -5 -15 -11 0 -6 -4 -4 -9 4 -6 8 -7 18 -4 24 3 5 1 6 -6 2 -6
-4 -9 -12 -6 -17 3 -5 -1 -6 -9 -3 -9 3 -14 10 -11 15 3 4 -3 6 -14 4 -11 -2
-34 0 -50 5 -21 6 -31 5 -35 -3 -2 -7 -5 -4 -5 6 -1 10 -5 15 -11 12 -5 -3
-10 0 -11 7 0 7 -4 4 -9 -7 l-9 -20 0 20 c-1 15 -3 17 -10 6 -6 -10 -10 -10
-16 -1 -4 6 -13 9 -21 6 -8 -3 -14 0 -14 6 0 7 -5 6 -15 -2 -13 -11 -14 -10
-8 6 6 16 5 17 -9 6 -11 -9 -18 -10 -23 -2 -4 6 -12 10 -18 9 -25 -3 -37 2
-35 14 2 8 -8 11 -29 10 -17 -2 -35 2 -38 8 -5 7 -11 6 -21 -2 -12 -10 -13 -9
-8 5 5 12 2 15 -12 9 -12 -4 -15 -3 -9 6 6 10 3 11 -14 2 -16 -9 -21 -9 -21 0
0 6 -7 8 -16 5 -11 -4 -15 -2 -11 8 4 10 -1 13 -19 11 -13 -1 -24 1 -24 5 0 4
-8 7 -17 6 -11 0 -17 5 -15 13 3 12 1 12 -14 0 -12 -9 -15 -9 -10 -1 5 9 -3
12 -29 12 -22 0 -34 4 -30 10 5 9 -8 14 -19 8 -2 -2 -14 6 -27 17 -12 11 -19
14 -15 8 4 -7 2 -13 -3 -13 -6 0 -11 7 -11 15 0 9 -6 15 -12 14 -28 -3 -39 1
-32 14 5 7 0 6 -11 -3 -11 -9 -16 -10 -11 -3 5 9 0 13 -13 13 -12 0 -21 3 -21
8 0 4 -11 12 -25 19 -19 8 -24 8 -19 0 3 -7 -3 -3 -13 9 -10 11 -23 19 -29 17
-6 -2 -21 5 -33 16 -12 11 -31 18 -42 16 -11 -2 -17 0 -14 6 4 5 -1 9 -10 9
-9 0 -13 5 -10 10 4 6 3 10 -2 9 -22 -4 -43 2 -38 11 4 6 -5 10 -19 10 -23 0
-31 9 -27 33 1 5 -3 6 -9 2 -6 -3 -8 -11 -5 -16 12 -18 -5 -9 -31 19 -15 15
-21 18 -13 7 14 -19 14 -19 -13 0 -15 11 -25 26 -23 34 5 12 3 12 -12 0 -15
-12 -16 -12 -10 3 4 12 2 15 -7 12 -7 -3 -20 2 -29 10 -12 12 -17 13 -20 3 -3
-6 -6 -1 -6 13 -1 18 -4 21 -10 11 -7 -10 -12 -8 -25 10 -9 13 -19 22 -22 20
-9 -6 -44 21 -39 30 3 4 -2 10 -11 13 -10 4 -13 2 -9 -7 4 -6 0 -4 -8 6 -8 9
-18 17 -23 17 -5 0 -16 9 -24 19 -7 11 -17 18 -22 15 -4 -3 -8 2 -8 10 0 9 -3
15 -7 15 -20 -3 -34 2 -28 10 3 5 -4 12 -15 16 -11 3 -28 17 -39 31 -10 13
-24 24 -31 24 -7 0 -10 7 -6 15 4 11 0 15 -12 13 -10 -2 -16 2 -14 11 2 9 -3
11 -13 7 -9 -3 -14 -2 -11 3 3 5 -1 11 -9 15 -8 3 -15 13 -15 23 0 15 -2 16
-10 3 -9 -13 -10 -13 -10 0 0 9 -14 28 -31 42 -16 15 -31 36 -32 47 -1 15 -4
17 -14 9 -12 -10 -18 0 -14 25 0 4 -5 7 -13 7 -7 0 -19 7 -26 15 -11 13 -10
15 1 12 8 -2 4 1 -8 7 -13 5 -23 18 -23 29 0 10 -3 16 -7 14 -5 -3 -17 7 -27
22 l-20 26 25 -20 c20 -17 20 -15 -4 11 -15 17 -24 34 -20 39 5 5 1 4 -8 -3
-14 -10 -16 -9 -16 5 0 43 -3 49 -13 33 -8 -13 -10 -12 -10 3 0 20 -24 49 -34
42 -3 -3 -4 -2 -1 2 3 3 -1 13 -8 21 -10 13 -9 14 3 8 8 -5 4 2 -10 15 -25 24
-33 40 -34 71 0 9 -4 14 -8 12 -4 -3 -8 0 -8 6 0 6 -6 8 -12 4 -7 -4 -10 -4
-6 1 4 4 2 15 -5 23 -10 13 -9 15 3 8 9 -4 8 -1 -2 7 -10 8 -18 22 -18 31 0 9
-4 16 -9 16 -8 0 -24 37 -22 53 1 4 -7 7 -16 7 -15 0 -16 2 -3 10 11 7 11 10
2 10 -7 0 -11 4 -7 9 3 5 1 12 -4 16 -6 3 -7 13 -4 22 4 9 2 14 -3 10 -5 -3
-14 6 -21 19 -8 18 -8 22 0 17 7 -3 4 3 -6 14 -9 11 -14 23 -10 26 3 4 1 7 -5
7 -7 0 -12 11 -12 25 0 14 -3 25 -8 25 -4 0 -13 9 -20 21 -8 12 -9 18 -3 14 6
-3 11 -2 11 4 0 5 -5 11 -11 13 -6 2 -12 16 -12 31 -1 15 -5 27 -9 27 -5 0 -8
9 -8 19 0 11 -4 22 -10 26 -5 3 -7 11 -4 18 2 7 -4 23 -15 36 -12 14 -18 32
-15 47 3 15 -1 27 -10 30 -8 3 -12 12 -9 20 3 8 -1 14 -8 14 -12 0 -12 2 0 9
10 6 10 10 1 16 -9 6 -9 10 1 16 11 7 10 9 -3 9 -21 0 -32 16 -17 26 8 5 9 3
4 -6 -6 -9 -4 -11 5 -5 11 7 10 10 -1 19 -8 6 -15 16 -16 21 -1 6 -5 19 -9 29
-5 13 -4 17 4 12 8 -5 10 -2 6 8 -3 9 -9 16 -13 16 -4 0 -8 6 -8 13 0 6 -4 21
-9 31 -5 14 -4 17 4 12 17 -10 15 0 -3 17 -8 8 -16 29 -17 46 -1 17 -5 31 -8
31 -3 0 -5 11 -5 25 0 14 5 25 10 25 6 0 3 4 -5 10 -8 5 -11 12 -7 16 4 4 -1
13 -11 21 -9 8 -11 12 -4 8 7 -4 12 0 12 9 0 9 -5 16 -11 16 -5 0 -7 5 -4 10
3 6 0 10 -7 11 -7 0 -4 4 7 9 11 5 14 9 7 9 -8 1 -12 7 -9 14 2 6 -3 21 -12
31 -9 11 -11 16 -4 12 9 -5 12 2 10 23 -1 16 -5 27 -9 24 -5 -2 -9 13 -9 34
-4 108 -7 144 -13 150 -3 3 0 13 7 21 10 13 9 14 -2 7 -11 -6 -13 -4 -9 7 4 8
2 21 -2 29 -5 8 -4 19 2 26 7 9 5 17 -6 28 -12 12 -13 21 -6 35 7 13 7 21 -1
26 -8 4 -7 9 2 15 8 5 9 9 3 9 -13 0 -13 62 1 72 7 5 6 8 -1 8 -6 0 -10 21 -9
53 0 28 -3 58 -8 65 -6 7 -5 12 2 12 6 0 11 5 11 11 0 5 -4 7 -10 4 -6 -4 -7
2 -1 17 4 12 5 37 1 55 -5 22 -4 33 3 33 6 0 2 7 -9 15 -14 11 -15 14 -2 9 14
-5 15 -1 8 30 -5 25 -4 36 4 36 6 0 4 5 -4 10 -11 7 -11 10 -2 10 9 0 10 5 3
18 -5 10 -6 23 -2 30 4 6 6 32 5 57 -1 29 2 43 9 38 6 -4 7 -1 1 8 -11 19 -12
69 -1 69 5 0 3 8 -4 17 -12 15 -12 16 3 10 12 -4 15 -2 11 9 -3 7 -10 14 -17
15 -6 0 -2 4 9 9 11 5 14 9 7 9 -7 1 -10 6 -7 11 4 6 12 7 18 3 8 -4 7 -1 -1
9 -7 9 -9 19 -4 22 4 3 7 25 6 50 -2 30 2 46 9 47 7 0 3 4 -8 9 -16 7 -17 9
-3 9 9 1 20 6 24 13 4 7 3 8 -4 4 -7 -4 -12 -2 -12 3 0 6 4 11 10 11 5 0 9 18
7 39 -2 22 0 38 4 36 4 -3 9 4 12 15 3 11 2 18 -2 15 -4 -2 -8 2 -8 9 0 9 7
12 16 9 13 -5 13 -3 4 7 -9 10 -9 16 2 27 8 7 11 21 8 30 -4 9 1 22 13 31 16
12 16 14 2 9 -10 -3 -20 -2 -23 3 -4 6 1 10 9 10 9 0 17 5 17 10 3 19 5 25 17
50 12 23 12 24 -2 6 -9 -11 -16 -15 -16 -8 0 7 9 17 19 24 15 9 17 15 9 25 -7
9 -7 13 1 13 7 0 10 4 6 10 -6 10 13 50 30 62 6 5 4 8 -5 8 -12 0 -13 2 -1 9
8 5 10 14 6 21 -5 9 -4 11 3 6 7 -4 13 -4 13 1 8 48 10 60 11 70 1 9 5 10 14
2 10 -8 12 -5 8 15 -3 17 3 31 18 46 12 11 17 20 10 20 -6 0 -9 7 -6 15 4 8
10 12 15 9 5 -3 12 8 15 25 4 17 10 28 15 25 5 -3 6 2 3 10 -3 9 -1 16 6 16 6
0 9 4 5 9 -3 5 -1 12 5 16 6 4 8 11 5 16 -4 5 1 9 9 9 9 0 15 3 15 8 -3 19 2
33 11 27 6 -4 7 1 3 11 -4 11 -3 15 5 10 7 -4 10 1 7 15 -3 15 0 19 10 15 10
-3 12 0 8 11 -4 11 -2 14 5 9 8 -4 10 -2 6 7 -3 8 2 17 11 21 9 3 14 10 10 15
-3 6 4 15 15 21 11 6 18 15 15 20 -3 5 3 18 14 29 11 11 17 22 13 25 -3 3 3 6
12 6 10 0 16 5 14 12 -3 7 6 22 19 34 17 16 20 24 11 27 -8 4 -7 6 5 6 15 1
22 12 18 33 0 5 5 7 12 5 6 -1 11 4 10 11 -2 6 2 13 7 13 6 1 14 2 19 3 5 0
13 5 18 10 5 5 2 6 -6 1 -9 -5 -12 -3 -9 6 3 8 11 13 18 11 7 -2 10 3 7 12 -4
9 2 16 15 19 14 4 19 11 14 23 -5 14 -4 15 8 5 13 -11 15 -9 11 8 -2 12 0 19
6 16 5 -4 9 -1 9 5 0 6 5 8 13 4 7 -5 7 -2 -2 10 -11 13 -11 16 -1 14 7 -2 15
3 18 11 3 8 0 11 -7 7 -7 -5 -9 -1 -5 9 4 8 0 23 -7 32 -10 11 -10 14 -2 9 9
-5 11 -2 7 8 -3 9 -9 14 -14 11 -4 -2 -5 7 -2 20 3 17 -1 27 -12 31 -12 5 -13
10 -5 26 9 16 8 19 -2 13 -9 -6 -11 -3 -6 8 4 10 2 16 -5 14 -6 -1 -13 4 -16
12 -3 8 0 11 7 7 7 -5 9 -1 5 8 -3 9 -9 14 -14 11 -4 -2 -6 12 -4 33 1 20 -2
43 -9 50 -8 10 -7 16 4 23 10 8 8 9 -9 4 -22 -6 -23 -5 -13 14 8 15 8 21 1 21
-7 0 -8 6 0 19 7 14 7 22 -2 27 -7 5 -8 3 -3 -7 8 -12 6 -12 -8 0 -18 14 -23
26 -8 17 5 -3 12 1 15 9 3 9 -1 18 -10 22 -13 5 -13 7 -2 14 10 7 10 9 1 9 -7
0 -13 5 -13 11 0 5 5 7 12 3 8 -5 8 -3 2 7 -5 8 -9 23 -9 34 0 11 -4 26 -8 33
-5 7 -3 12 5 12 9 0 9 3 -2 10 -12 8 -12 10 -1 10 11 0 11 3 1 15 -7 8 -17 12
-23 8 -6 -3 -7 -1 -3 6 4 6 12 9 17 6 11 -7 7 24 -5 44 -7 11 -5 13 7 8 11 -4
14 -2 10 8 -3 8 -9 12 -14 9 -5 -3 -9 -1 -9 5 0 5 6 12 13 14 9 4 9 6 0 6 -7
1 -13 6 -13 12 0 5 4 8 8 5 5 -3 9 1 9 9 0 8 -4 12 -9 9 -4 -3 -8 2 -8 11 0 9
5 13 10 10 15 -9 12 4 -5 21 -18 18 -8 47 14 40 11 -4 10 -1 -4 9 -17 14 -18
18 -6 37 10 17 10 22 0 29 -10 6 -10 11 -1 21 9 11 9 18 -1 28 -10 10 -9 11 2
5 11 -6 13 -4 8 8 -3 10 -3 17 1 17 4 0 7 29 6 65 0 40 4 65 10 65 6 0 5 4 -3
9 -9 6 -10 10 -2 16 9 5 9 10 0 21 -10 12 -9 13 7 7 17 -6 18 -5 4 12 -8 10
-10 16 -3 12 6 -4 14 -3 18 3 3 5 1 10 -5 10 -7 0 -8 6 -1 18 5 10 6 24 1 32
-11 17 -2 40 14 34 7 -3 12 4 12 15 0 16 -3 18 -15 8 -12 -9 -11 -5 2 16 11
16 16 40 14 61 -3 25 0 33 9 29 8 -3 11 4 10 22 -3 20 0 25 12 20 13 -5 13 -3
2 11 -12 13 -11 17 1 25 12 7 12 9 -1 9 -12 1 -11 3 3 14 14 11 15 15 5 19 -8
3 -6 6 6 6 16 1 16 3 5 17 -9 12 -10 17 -1 23 6 4 10 17 7 29 -2 13 0 20 6 17
5 -4 9 -1 9 5 0 6 5 8 13 4 8 -5 8 -2 -2 9 -9 12 -10 17 -2 17 7 0 10 4 7 9
-9 15 5 42 18 34 6 -4 4 2 -4 12 -8 10 -10 16 -3 12 6 -4 14 -3 18 3 3 5 1 10
-6 10 -7 0 -5 8 7 22 10 12 13 18 7 14 -7 -4 -13 -2 -13 3 0 6 5 11 10 11 6 0
10 7 10 15 0 8 5 15 11 15 8 0 8 4 0 14 -10 12 -8 14 14 12 14 -2 28 0 30 4 3
5 18 7 34 6 17 -1 28 2 25 6 -9 14 9 8 29 -9 19 -18 20 -17 8 5 -7 13 -10 26
-7 30 3 3 6 0 6 -7 0 -7 5 -9 10 -6 6 3 10 -2 10 -12 0 -15 2 -16 10 -3 5 8
18 16 29 16 11 1 18 -2 16 -6 -3 -4 2 -10 10 -14 8 -3 15 0 15 6 0 9 3 9 12 0
15 -15 31 -16 22 0 -5 7 -3 8 6 3 8 -5 31 -9 52 -10 25 -1 44 -9 53 -21 15
-19 15 -19 8 1 l-6 20 23 -20 c13 -11 20 -14 16 -7 -4 6 -2 12 3 12 6 0 11 -5
11 -11 0 -6 6 -9 14 -6 7 3 19 0 26 -6 10 -9 11 -9 6 1 -9 15 10 16 19 2 5 -8
12 -7 23 2 13 11 14 11 5 -7 -10 -18 -8 -20 25 -19 21 1 40 -3 43 -8 3 -5 16
-10 27 -11 12 -1 22 -5 22 -10 0 -4 4 -6 9 -3 5 4 17 3 26 0 13 -5 14 -8 3
-15 -8 -5 0 -7 20 -4 19 2 38 -2 46 -11 11 -11 16 -11 19 -1 3 6 6 3 6 -8 1
-17 3 -17 11 -5 7 11 10 11 10 2 0 -7 5 -10 10 -7 6 3 10 1 10 -5 0 -6 4 -9 9
-6 5 4 11 1 13 -6 2 -6 12 -12 21 -14 11 -1 14 2 10 9 -4 7 1 6 10 -2 9 -7 14
-18 11 -23 -4 -6 4 -5 16 2 15 8 20 8 16 1 -7 -11 6 -15 33 -12 7 2 10 -2 6
-8 -3 -7 2 -11 14 -11 12 0 21 -5 21 -11 0 -5 4 -8 9 -4 5 3 16 -2 24 -10 12
-11 17 -12 20 -2 4 9 6 9 6 -1 1 -7 6 -10 11 -7 6 3 10 0 10 -7 0 -9 3 -9 10
2 8 13 10 12 10 -2 0 -11 8 -19 20 -19 39 -3 45 -5 43 -16 -1 -6 5 -10 14 -9
10 2 24 -5 33 -14 8 -9 11 -10 6 -3 -6 10 -4 12 8 7 9 -3 16 -10 16 -14 0 -5
8 -7 18 -5 22 3 44 -14 35 -28 -3 -6 -1 -7 5 -3 7 4 12 1 12 -6 0 -9 3 -9 10
2 6 9 10 10 10 3 0 -6 16 -17 35 -24 19 -7 35 -17 35 -21 0 -4 7 -8 15 -8 8 0
15 -4 15 -8 0 -4 10 -8 23 -9 12 -1 29 -11 38 -22 13 -15 19 -17 29 -8 10 9
11 9 6 0 -5 -9 0 -13 12 -13 22 0 46 -23 35 -34 -4 -4 0 -4 10 0 11 4 17 1 17
-7 0 -7 3 -9 7 -6 3 4 13 -2 20 -13 8 -11 18 -18 23 -15 5 3 16 -3 26 -12 10
-10 25 -18 33 -18 9 0 17 -6 17 -13 3 -23 4 -24 19 -12 11 9 15 9 15 1 0 -7 5
-9 13 -5 8 5 8 2 -2 -9 -12 -15 -11 -17 12 -17 14 0 28 -7 31 -16 3 -8 10 -12
16 -9 5 3 10 3 10 -2 0 -12 60 -44 71 -37 5 3 9 -5 9 -18 0 -18 2 -20 10 -8 8
13 14 8 12 -11 -1 -3 5 -6 13 -6 8 0 13 5 12 11 -1 6 14 11 35 11 20 0 35 2
33 5 -2 3 8 11 22 17 25 12 25 12 7 -8 l-19 -21 35 20 c19 12 44 20 55 18 11
-2 27 7 37 18 15 18 19 19 28 6 9 -13 10 -13 10 0 0 13 1 13 10 0 9 -13 10
-13 10 0 0 13 1 13 10 0 7 -11 10 -11 10 -2 0 7 5 10 10 7 6 -3 10 -1 10 5 0
8 6 8 20 0 16 -9 18 -8 14 5 -5 13 -1 15 20 11 14 -3 26 0 26 5 0 5 5 9 11 9
5 0 8 -4 5 -9 -7 -11 34 -2 51 11 7 6 13 4 16 -4 3 -8 6 -6 6 5 1 11 6 15 12
11 6 -3 15 0 20 7 6 9 9 10 9 2 0 -13 50 -10 93 6 14 5 28 7 31 4 3 -4 6 0 6
8 0 11 2 11 10 -1 7 -11 10 -11 10 -2 0 10 5 10 21 1 12 -6 19 -7 15 -1 -9 14
20 22 33 9 8 -8 11 -8 11 2 0 11 3 11 15 1 12 -10 16 -9 20 3 4 8 18 14 33 15
15 0 29 1 32 2 3 1 40 3 82 4 64 2 81 6 93 22 11 13 15 15 13 4 -2 -9 1 -15 7
-15 5 0 9 4 7 9 -2 5 5 3 14 -5 15 -11 16 -11 10 0 -6 9 -5 12 5 9 8 -3 22 -1
32 4 11 6 17 5 17 -2 0 -7 7 -7 21 1 16 8 20 8 14 -1 -6 -9 -2 -9 15 0 18 10
24 9 31 -1 7 -11 9 -11 9 -1 0 7 5 10 10 7 6 -3 10 -1 10 6 0 8 4 8 13 2 15
-12 48 -13 41 -1 -3 5 -10 5 -16 2 -7 -4 -8 -2 -4 4 5 8 13 9 25 2 12 -6 22
-5 31 3 10 10 12 8 6 -8 -6 -20 -6 -20 9 -1 8 11 15 14 15 7 0 -7 5 -9 12 -5
19 12 48 12 48 1 0 -5 6 -5 13 2 10 7 17 7 24 0 8 -8 17 -8 29 -1 13 7 25 7
38 0 16 -9 18 -7 13 6 -5 13 -3 15 11 8 20 -10 204 -8 221 2 6 4 11 3 11 -1 0
-5 24 -8 52 -7 29 2 59 -3 67 -9 10 -8 13 -9 8 -1 -4 8 3 11 23 10 17 0 30 -5
30 -10 0 -6 7 -1 16 10 8 10 13 14 10 8 -3 -7 3 -14 14 -17 11 -3 18 -1 14 4
-3 5 2 9 10 9 9 0 16 -4 16 -10 0 -5 5 -10 11 -10 5 0 8 4 5 8 -2 4 9 8 25 7
16 0 29 -4 29 -8 0 -5 6 -5 13 0 19 12 37 12 37 1 0 -6 7 -4 17 3 13 11 15 11
9 1 -6 -11 1 -13 32 -11 22 2 46 -2 54 -9 8 -6 18 -9 22 -5 11 11 36 12 36 1
0 -6 6 -5 15 2 8 7 15 8 15 3 0 -5 16 -10 35 -10 19 0 35 5 35 11 0 6 4 4 9
-4 6 -8 8 -17 5 -21 -2 -4 5 -5 16 -2 11 3 18 9 15 12 -2 4 2 8 9 8 9 0 12 -7
8 -16 -5 -14 -3 -14 11 -2 14 11 17 11 17 0 0 -11 2 -11 10 1 6 9 10 10 10 3
0 -8 17 -11 51 -9 33 1 56 -3 65 -12 8 -7 14 -9 14 -3 0 6 7 11 15 11 8 0 15
-4 15 -8 0 -5 6 -9 13 -9 51 -3 120 -13 125 -17 3 -3 12 0 20 7 13 10 14 9 7
-2 -6 -11 -3 -13 14 -8 17 4 20 3 11 -7 -8 -10 -5 -13 14 -11 14 2 30 6 37 11
8 4 9 3 5 -4 -5 -8 3 -11 23 -8 18 2 36 -2 42 -11 10 -11 15 -11 31 4 18 16
19 16 12 -2 -6 -15 -4 -17 9 -12 10 4 17 2 17 -5 0 -7 4 -7 14 1 11 9 17 9 27
-2 8 -7 22 -16 31 -20 13 -4 16 -2 12 11 -5 14 -3 13 10 -2 9 -11 16 -16 16
-12 0 5 6 4 13 -2 8 -7 18 -7 27 -2 17 11 43 -7 33 -24 -3 -6 4 -2 16 8 17 15
20 16 16 4 -4 -11 0 -15 12 -15 51 0 64 -3 57 -15 -6 -10 -4 -10 7 0 16 14 33
16 24 2 -4 -6 6 -10 22 -10 16 0 35 -6 42 -12 11 -10 13 -10 7 0 -4 6 -3 12 2
12 6 0 13 -8 17 -17 6 -17 7 -17 19 -1 7 10 16 15 19 11 4 -3 7 -1 7 7 0 10 4
10 17 -1 9 -8 14 -9 10 -3 -9 15 29 48 44 38 7 -4 10 -3 6 3 -8 13 20 26 36
16 7 -4 5 2 -3 13 -8 10 -11 16 -6 12 13 -11 86 32 86 51 0 14 2 14 10 1 9
-14 14 -7 11 13 -1 5 8 5 20 2 15 -5 19 -4 15 4 -5 7 1 11 14 11 12 0 18 5 15
10 -3 6 4 10 16 10 12 0 19 3 16 7 -10 9 43 34 56 26 6 -4 8 0 5 9 -4 8 0 15
8 16 8 1 21 3 29 4 9 1 14 7 11 14 -3 8 0 11 8 8 8 -3 17 -1 20 5 4 6 14 7 23
4 11 -4 14 -3 9 5 -4 7 -2 12 4 12 6 0 8 5 4 12 -4 7 -3 8 5 4 14 -9 53 2 46
14 -3 4 2 11 11 14 8 3 13 2 10 -2 -2 -4 4 -8 14 -8 10 0 16 6 13 12 -5 14 31
29 46 19 6 -3 8 3 6 13 -3 15 2 18 21 16 13 -1 22 2 18 7 -3 5 2 9 10 9 9 0
16 4 16 10 0 5 7 6 17 3 12 -5 14 -3 8 8 -8 12 -6 12 9 0 14 -12 17 -12 14 -1
-2 10 6 14 24 14 15 -1 25 3 22 8 -3 4 -10 5 -16 2 -7 -4 -8 -2 -4 4 4 6 13 9
21 5 8 -3 15 -1 15 4 0 6 14 9 30 8 20 -1 29 2 26 10 -4 11 6 15 46 16 10 0
15 6 11 15 -4 10 0 12 11 8 9 -3 16 -1 16 5 0 9 5 9 21 0 15 -8 19 -8 15 0 -8
13 41 34 60 27 7 -3 20 4 29 14 10 11 22 17 26 14 5 -3 9 3 9 13 0 15 2 16 10
3 8 -12 10 -12 10 -1 0 8 7 11 20 8 12 -3 17 -1 14 5 -3 5 2 8 12 6 11 -2 18
2 17 8 -1 7 6 10 17 7 13 -3 20 0 20 8 0 11 2 11 10 -1 7 -11 10 -11 10 -2 0
7 4 11 9 8 5 -4 11 -1 13 6 2 6 19 13 38 14 18 2 36 7 39 12 6 9 12 11 73 14
20 2 34 6 31 11 -2 4 7 6 21 3 15 -3 24 -1 21 5 -4 5 0 9 9 9 8 0 23 3 33 7
16 6 17 5 3 -13 -14 -18 -14 -18 6 -1 11 9 24 14 27 10 4 -3 14 2 23 13 8 10
13 14 10 8 -3 -7 1 -15 10 -18 12 -5 15 -2 10 11 -6 14 -4 14 15 -3 12 -10 19
-13 15 -6 -4 7 -1 12 8 13 49 3 63 2 74 -5 6 -4 12 -3 12 2 0 5 7 9 15 9 9 0
14 -6 11 -12 -2 -6 2 -12 10 -12 7 0 11 4 8 8 -2 4 0 10 6 14 5 3 10 -1 10 -9
0 -9 5 -16 11 -16 5 0 7 5 3 11 -4 8 0 8 15 0 11 -7 21 -9 21 -5 0 3 8 0 17
-7 14 -12 16 -12 9 1 -4 8 1 5 12 -8 14 -15 22 -18 25 -10 3 7 3 -2 0 -21 -4
-22 -2 -32 4 -28 6 4 8 -3 5 -18 -3 -17 0 -25 10 -25 10 0 13 -10 12 -31 -2
-22 2 -29 12 -25 7 3 16 0 20 -6 4 -7 3 -8 -4 -4 -7 4 -12 1 -12 -8 0 -9 6
-16 13 -16 8 0 7 -4 -3 -10 -12 -7 -12 -10 -1 -10 7 0 11 -6 7 -15 -3 -10 1
-15 12 -15 15 0 15 -2 2 -10 -12 -8 -12 -10 -1 -10 8 0 11 -3 8 -7 -4 -3 -2
-12 4 -20 7 -8 8 -13 1 -13 -5 0 -8 -9 -5 -20 3 -11 10 -17 16 -13 6 4 8 0 4
-10 -3 -10 -3 -17 2 -17 4 0 7 -16 6 -34 -1 -19 1 -33 5 -31 3 2 12 -6 20 -18
12 -21 12 -21 -6 -7 -18 15 -18 14 -1 -12 13 -20 14 -28 5 -28 -10 0 -10 -3 1
-9 7 -5 11 -13 7 -19 -3 -6 -2 -13 4 -17 6 -4 8 -11 5 -16 -4 -5 -1 -9 4 -9 6
0 11 -4 11 -10 0 -5 -8 -7 -17 -4 -17 5 -17 5 0 -6 10 -6 17 -23 17 -38 -1
-62 6 -95 25 -108 10 -8 14 -14 8 -14 -6 0 -10 -18 -10 -40 0 -23 4 -37 9 -34
6 4 5 -3 -1 -15 -7 -12 -8 -21 -2 -21 6 0 6 -11 1 -30 -6 -20 -5 -30 2 -30 6
0 8 -3 5 -7 -4 -3 -1 -13 6 -21 9 -13 9 -14 0 -8 -17 10 -16 -5 2 -31 11 -16
12 -24 4 -29 -8 -4 -9 -3 -5 4 4 7 3 12 -2 12 -5 0 -9 -11 -9 -25 0 -14 4 -25
9 -25 5 0 6 5 2 12 -4 7 -3 8 4 4 17 -10 15 -15 -10 -26 -18 -7 -19 -9 -5 -9
9 -1 17 -5 17 -11 0 -5 -8 -10 -17 -11 -11 0 -13 -3 -5 -6 6 -2 12 -14 12 -24
0 -13 4 -18 12 -13 7 5 8 3 4 -5 -5 -7 -14 -10 -20 -8 -7 3 -13 -1 -13 -9 0
-7 3 -11 7 -9 3 2 11 -5 18 -16 9 -14 9 -18 1 -17 -6 2 -14 -3 -17 -11 -2 -8
0 -11 6 -7 12 7 10 -20 -3 -31 -4 -4 -5 -2 0 6 6 10 4 12 -4 7 -8 -5 -9 -12
-2 -20 6 -7 6 -17 1 -26 -14 -21 -12 -32 3 -24 9 6 9 4 1 -7 -6 -8 -10 -22 -9
-31 2 -10 -2 -18 -8 -18 -7 0 -6 -5 3 -10 13 -9 13 -11 0 -20 -13 -8 -13 -10
-1 -10 11 0 10 -4 -5 -16 -10 -8 -14 -13 -8 -10 7 3 14 -3 17 -14 4 -17 2 -18
-15 -9 -17 9 -18 8 -9 -8 5 -11 6 -25 1 -33 -5 -9 -5 -19 1 -26 7 -8 6 -14 -1
-19 -6 -3 -7 -12 -3 -18 5 -9 3 -9 -8 0 -11 9 -14 7 -14 -12 0 -19 3 -21 15
-12 8 6 6 2 -4 -11 -11 -12 -15 -22 -10 -22 5 0 2 -5 -6 -10 -12 -8 -12 -10
-1 -10 11 0 11 -3 0 -16 -10 -13 -10 -17 2 -25 12 -7 11 -9 -3 -9 -9 0 -20 -5
-24 -12 -5 -7 -3 -8 7 -3 11 7 12 6 2 -6 -10 -12 -10 -18 0 -28 9 -10 8 -11
-6 -5 -10 3 -17 3 -16 -2 3 -20 -2 -35 -10 -30 -5 3 -7 -10 -5 -29 2 -21 -1
-33 -6 -30 -6 4 -10 -3 -10 -14 0 -12 -6 -21 -12 -21 -9 0 -8 -4 2 -10 8 -5
12 -10 8 -10 -4 0 6 -13 24 -30 17 -16 28 -30 25 -30 -4 0 1 -9 10 -19 9 -11
21 -17 26 -14 6 3 7 1 3 -5 -4 -7 -2 -12 3 -12 6 0 11 -7 11 -16 0 -8 4 -12
10 -9 5 3 12 -6 16 -20 3 -13 9 -23 13 -21 3 2 15 -6 26 -17 11 -11 14 -17 8
-13 -7 4 -13 3 -13 -3 0 -5 9 -13 20 -16 11 -4 18 -11 15 -16 -4 -5 -1 -9 5
-9 6 0 8 -4 5 -10 -3 -5 -1 -10 4 -10 6 0 11 -7 11 -16 0 -9 5 -12 12 -8 8 5
9 2 5 -10 -4 -9 -3 -14 2 -11 5 3 12 -3 15 -13 9 -28 52 -83 59 -75 4 3 7 1 7
-5 0 -7 -6 -12 -12 -12 -9 0 -8 -3 2 -9 8 -6 18 -7 24 -4 5 4 7 0 4 -8 -3 -8
0 -23 8 -33 7 -11 11 -23 7 -29 -3 -6 -1 -7 5 -3 6 3 13 2 17 -4 3 -5 1 -10
-6 -10 -6 0 -2 -8 10 -17 12 -10 23 -28 26 -41 2 -12 11 -29 19 -38 19 -18 21
-38 4 -28 -9 5 -9 2 1 -9 15 -19 26 -23 15 -5 -4 7 -3 8 4 4 7 -4 12 -18 12
-31 0 -13 5 -25 11 -27 6 -2 12 -16 12 -31 1 -15 6 -27 10 -27 5 0 5 -5 1 -12
-5 -7 -2 -9 8 -6 9 4 15 0 15 -8 0 -8 -4 -14 -9 -14 -4 0 1 -9 12 -20 11 -11
20 -30 20 -43 0 -13 4 -27 9 -32 6 -6 12 -23 15 -40 2 -16 5 -32 6 -35 1 -3 2
-9 1 -14 -1 -5 3 -13 10 -17 7 -4 14 -22 16 -40 2 -18 8 -36 13 -39 6 -3 11
-25 12 -48 1 -22 4 -39 8 -37 4 3 7 -3 7 -13 0 -35 3 -43 15 -36 7 5 8 3 2 -7
-13 -21 -14 -39 -1 -39 5 0 7 -3 4 -7 -4 -3 1 -16 10 -27 17 -20 17 -20 0 -7
-15 12 -17 12 -11 -3 3 -9 11 -16 18 -16 6 0 4 -5 -4 -10 -10 -6 -11 -10 -2
-10 6 0 12 -5 12 -11 0 -5 -4 -8 -9 -5 -11 7 -9 -13 2 -31 5 -7 5 -17 2 -23
-3 -5 0 -10 7 -10 9 0 9 -3 -2 -10 -13 -9 -13 -10 0 -10 11 0 12 -2 3 -8 -8
-5 -9 -13 -3 -22 8 -13 10 -13 10 -1 0 8 3 11 6 8 4 -4 1 -13 -6 -22 -8 -10
-9 -15 -1 -15 6 0 11 -5 11 -11 0 -5 -4 -8 -8 -5 -5 3 -9 -2 -9 -10 0 -9 6
-13 15 -9 12 4 12 3 3 -9 -9 -11 -9 -15 1 -19 11 -4 11 -6 0 -6 -9 -1 -10 -7
-4 -18 4 -10 7 -48 7 -85 -1 -37 1 -65 5 -63 3 2 6 -5 6 -15 0 -10 -3 -17 -7
-14 -10 6 -6 -47 4 -64 5 -7 3 -12 -4 -12 -7 0 -4 -7 7 -15 13 -10 14 -13 3
-10 -10 4 -16 0 -16 -10 0 -10 6 -14 15 -10 13 5 13 3 2 -11 -15 -17 -22 -76
-8 -68 4 3 8 0 8 -5 0 -6 -5 -11 -11 -11 -8 0 -8 -4 0 -13 8 -10 7 -17 -2 -26
-9 -11 -9 -14 1 -18 6 -3 9 -10 5 -16 -12 -19 -11 -57 1 -57 8 0 8 -2 0 -8 -6
-4 -10 -25 -10 -47 1 -22 -1 -47 -6 -56 -4 -9 -5 -19 -1 -22 10 -11 6 -106 -6
-120 -6 -8 -11 -36 -11 -63 -1 -88 -5 -129 -13 -141 -5 -8 -4 -13 2 -13 6 0
11 -5 11 -11 0 -6 -7 -9 -14 -6 -12 5 -13 1 -7 -16 6 -15 4 -26 -8 -35 -9 -7
-10 -11 -3 -7 10 5 11 0 6 -20 -4 -15 -7 -37 -8 -49 -1 -11 -5 -24 -11 -28 -6
-4 -1 -8 10 -9 17 -1 16 -2 -5 -9 -21 -7 -22 -8 -5 -9 16 -1 17 -3 6 -10 -9
-6 -15 -27 -15 -55 -1 -33 -5 -46 -15 -46 -11 0 -9 -4 5 -16 10 -8 14 -13 7
-10 -6 4 -14 2 -18 -4 -3 -5 0 -10 7 -10 8 0 6 -5 -5 -11 -14 -8 -15 -14 -6
-31 7 -13 7 -18 1 -14 -6 3 -13 2 -17 -4 -3 -5 -1 -10 6 -10 8 0 7 -5 -2 -17
-12 -14 -12 -16 1 -9 8 4 4 -2 -10 -14 -20 -18 -21 -21 -6 -16 18 6 19 5 5
-11 -8 -10 -15 -32 -15 -49 1 -21 -3 -30 -11 -27 -7 3 -13 0 -13 -6 0 -6 6
-11 13 -11 9 0 9 -2 0 -8 -15 -10 -24 -70 -10 -75 6 -2 3 -6 -7 -10 -11 -5
-15 -3 -10 5 4 6 3 8 -3 5 -5 -3 -9 -20 -8 -36 1 -18 -2 -28 -8 -24 -6 4 -8
-2 -5 -15 4 -13 2 -20 -6 -19 -6 1 -10 -4 -8 -12 2 -8 -3 -18 -10 -22 -10 -7
-10 -9 0 -9 6 0 12 -5 12 -10 0 -6 -6 -9 -12 -8 -8 2 -12 -5 -10 -16 2 -10 -1
-15 -6 -12 -5 3 -8 -6 -6 -19 1 -14 -2 -27 -7 -31 -5 -3 -7 -9 -4 -14 3 -4 -2
-11 -11 -14 -14 -5 -14 -9 -3 -23 10 -12 10 -14 2 -9 -8 4 -13 1 -13 -8 0 -9
-4 -16 -8 -16 -4 0 -8 -10 -9 -22 -1 -11 -7 -24 -14 -28 -6 -5 -8 -13 -4 -20
6 -9 4 -11 -5 -5 -10 6 -12 4 -7 -9 4 -10 -1 -23 -13 -33 -15 -13 -16 -19 -7
-25 9 -6 9 -8 -1 -8 -7 0 -10 -4 -7 -10 3 -5 -2 -10 -12 -10 -14 0 -15 -2 -4
-9 9 -6 10 -10 2 -12 -7 -3 -13 -14 -14 -27 0 -12 -7 -22 -14 -22 -7 0 -12 -3
-12 -7 3 -19 -2 -33 -17 -47 -8 -9 -16 -24 -17 -35 0 -10 -6 -17 -13 -14 -7 2
-11 -3 -11 -14 1 -10 -3 -17 -9 -16 -6 1 -11 -4 -11 -12 0 -8 5 -11 11 -8 6 4
5 -1 -3 -10 -7 -9 -18 -14 -24 -10 -5 3 -7 1 -3 -5 3 -6 2 -13 -4 -17 -6 -4
-8 -10 -5 -15 3 -4 -2 -10 -10 -14 -8 -3 -15 -11 -15 -17 0 -7 -7 -17 -14 -23
-8 -6 -16 -17 -18 -25 -2 -8 -16 -28 -33 -44 -16 -16 -21 -23 -10 -16 20 13
20 13 1 -8 -10 -13 -22 -20 -26 -18 -4 3 -7 -3 -6 -13 0 -9 -5 -16 -12 -14 -6
1 -11 -2 -10 -7 2 -5 -6 -17 -17 -26 -11 -9 -13 -13 -5 -9 8 4 -6 -13 -32 -38
-26 -25 -44 -48 -41 -52 4 -3 0 -6 -9 -6 -18 0 -51 -34 -41 -43 6 -6 -11 -11
-29 -8 -4 0 -5 -5 -2 -12 3 -8 -13 -22 -38 -35 -24 -13 -35 -20 -25 -18 9 3
17 1 17 -4 0 -6 -6 -10 -14 -10 -8 0 -16 -7 -20 -15 -3 -8 -12 -15 -20 -15 -8
0 -24 -15 -36 -32 -12 -18 -19 -25 -16 -15 3 11 2 16 -4 12 -6 -3 -10 -13 -10
-21 0 -8 -3 -13 -7 -13 -19 3 -33 -2 -31 -10 2 -5 -1 -10 -7 -12 -5 -1 -16 -9
-23 -18 -10 -12 -12 -12 -6 -1 4 8 -5 4 -19 -10 -46 -43 -67 -60 -67 -53 0 3
-8 -4 -19 -15 -20 -24 -37 -30 -25 -9 4 6 -4 3 -17 -9 -13 -12 -32 -24 -41
-27 -10 -4 -18 -11 -18 -17 0 -5 -6 -10 -14 -10 -8 0 -18 -5 -22 -12 -5 -7 -3
-8 6 -3 9 5 11 4 6 -4 -6 -9 -11 -9 -21 -1 -9 8 -17 4 -29 -16 -10 -14 -24
-23 -31 -20 -7 2 -16 -2 -19 -11 -4 -8 -13 -13 -20 -10 -8 3 -17 -1 -20 -9 -3
-9 -10 -12 -16 -9 -5 3 -10 1 -10 -5 0 -7 -7 -9 -16 -6 -10 4 -13 2 -8 -6 5
-8 2 -9 -10 -5 -10 4 -15 3 -11 -3 4 -6 -8 -13 -25 -16 -21 -5 -29 -11 -26
-21 3 -8 1 -11 -5 -8 -5 4 -17 1 -26 -7 -14 -11 -16 -11 -8 2 4 8 -4 4 -20
-10 -16 -14 -25 -18 -20 -10 4 8 -2 5 -14 -7 -26 -27 -39 -31 -20 -5 12 15 11
14 -8 -1 -12 -11 -26 -16 -32 -13 -5 4 -13 1 -17 -5 -4 -8 -3 -9 4 -5 7 4 12
5 12 2 0 -2 -14 -11 -30 -20 -17 -8 -27 -10 -24 -4 4 6 1 8 -7 6 -8 -3 -13
-11 -11 -17 1 -7 -2 -10 -7 -7 -5 4 -13 1 -17 -5 -4 -8 -9 -7 -15 2 -7 12 -9
12 -9 0 0 -7 -6 -11 -15 -7 -8 3 -14 0 -12 -7 1 -7 -10 -12 -30 -11 -26 0 -30
-3 -21 -14 6 -7 7 -12 2 -11 -5 1 -11 1 -14 -1 -3 -1 -16 -3 -30 -5 -51 -9
-60 -11 -67 -20 -4 -4 -2 -5 6 0 9 5 12 4 8 -2 -4 -6 -22 -10 -41 -9 -19 1
-34 -1 -34 -4 1 -18 -4 -21 -17 -10 -13 11 -14 10 -10 -2 5 -12 0 -14 -19 -11
-18 4 -26 1 -26 -8 0 -11 -2 -11 -10 1 -7 12 -10 12 -10 1 0 -8 -6 -11 -16 -7
-15 6 -15 4 -3 -10 13 -16 12 -16 -8 -6 -14 8 -24 9 -28 2 -4 -6 -11 -8 -16
-5 -5 4 -9 -2 -9 -12 0 -11 -3 -14 -8 -7 -8 12 -53 14 -45 1 3 -5 -1 -8 -8 -6
-39 5 -70 -2 -63 -13 6 -10 4 -10 -8 0 -14 11 -18 10 -27 -5 -10 -17 -10 -17
-11 2 -1 19 -2 19 -9 1 -5 -14 -10 -16 -15 -7 -6 9 -11 9 -22 0 -8 -6 -14 -8
-14 -5 0 4 -10 0 -22 -8 -29 -21 -48 -21 -22 0 10 8 12 12 4 8 -8 -4 -24 -14
-34 -23 -11 -9 -16 -10 -12 -3 9 14 -10 17 -19 2 -3 -6 -18 -8 -32 -6 -19 4
-23 2 -19 -11 5 -13 4 -14 -9 -3 -12 10 -15 10 -15 -1 0 -11 -2 -11 -10 1 -7
11 -10 11 -10 2 0 -7 -4 -11 -9 -8 -5 4 -12 0 -14 -6 -4 -9 -6 -9 -6 -1 -1 8
-10 9 -28 5 -16 -4 -37 -7 -48 -7 -11 0 -23 -4 -27 -10 -5 -6 -8 -5 -8 3 0 11
-3 11 -14 -1 -9 -8 -31 -13 -58 -12 -23 1 -49 -3 -57 -9 -8 -6 -12 -6 -9 -1 4
6 -7 10 -25 9 -17 0 -33 -6 -34 -11 -2 -6 -12 -9 -22 -6 -11 3 -28 0 -40 -6
-16 -9 -21 -9 -21 1 0 8 -3 9 -8 3 -4 -6 -15 -11 -24 -12 -49 -2 -49 -2 -36
-17 7 -8 16 -12 20 -10 4 3 5 -5 3 -17 -4 -18 -2 -19 12 -7 10 8 14 8 10 1 -4
-6 1 -18 13 -26 11 -7 17 -17 13 -20 -3 -4 -1 -7 6 -7 7 0 9 -4 6 -10 -3 -6 1
-7 9 -4 9 3 16 1 16 -6 0 -6 5 -8 10 -5 5 3 10 1 10 -4 0 -6 -6 -11 -12 -11
-7 -1 -2 -7 12 -15 14 -8 21 -14 16 -15 -5 0 3 -11 18 -25 16 -14 24 -30 20
-37 -5 -7 -2 -9 7 -6 10 4 15 -1 16 -15 1 -11 8 -24 15 -28 7 -5 9 -9 3 -9 -5
0 1 -10 15 -21 14 -11 19 -18 12 -14 -11 6 -12 3 -3 -14 7 -11 17 -21 24 -21
7 0 6 -4 -3 -10 -13 -8 -12 -10 3 -10 10 0 15 -4 12 -10 -3 -5 -2 -10 4 -10 6
0 7 -7 4 -17 -4 -11 -3 -14 5 -9 8 5 12 -3 12 -23 0 -20 5 -31 14 -31 9 0 13
-9 11 -25 -1 -14 1 -25 6 -25 5 0 6 -7 3 -15 -5 -12 -2 -14 12 -8 17 6 17 5 5
-10 -9 -12 -10 -17 -2 -17 7 0 11 -6 10 -12 -3 -29 2 -49 11 -43 6 3 10 -1 10
-10 0 -9 -4 -14 -9 -11 -5 4 -4 -5 2 -18 7 -13 16 -22 22 -19 5 2 1 -3 -9 -11
-17 -14 -18 -16 -3 -16 9 0 18 -4 18 -10 1 -5 2 -16 3 -22 1 -7 -3 -16 -9 -20
-6 -5 -5 -8 3 -8 7 0 10 -4 7 -10 -3 -5 -1 -10 5 -10 8 0 7 -6 -1 -22 -10 -18
-9 -20 6 -14 15 5 16 4 6 -8 -9 -11 -8 -17 4 -29 13 -14 13 -16 -3 -20 -14 -4
-14 -5 3 -6 17 -1 18 -3 5 -11 -10 -6 -11 -10 -2 -10 6 0 12 -7 12 -16 0 -9
-5 -12 -12 -8 -10 6 -10 4 -2 -7 5 -8 10 -21 9 -29 0 -8 4 -18 10 -22 6 -5 6
-8 -2 -8 -7 0 -13 -5 -13 -11 0 -5 4 -7 10 -4 6 3 7 -1 4 -10 -4 -8 0 -23 7
-32 8 -9 9 -14 3 -10 -7 4 -14 -3 -16 -18 -4 -20 -3 -23 8 -14 10 8 13 6 11
-10 -1 -14 -6 -20 -15 -16 -8 3 -10 0 -5 -8 4 -6 8 -16 8 -22 1 -5 7 -9 14 -7
7 1 10 -2 6 -8 -3 -6 -11 -8 -16 -5 -5 4 -9 1 -9 -4 0 -6 5 -11 12 -11 9 0 9
-3 0 -12 -19 -19 -14 -32 5 -17 16 12 16 11 -1 -15 -15 -24 -16 -28 -3 -23 13
5 14 1 6 -26 -11 -39 -11 -40 1 -32 6 3 7 -1 4 -9 -3 -9 -10 -13 -16 -10 -5 3
-4 -3 4 -15 10 -16 10 -23 0 -33 -6 -6 -12 -17 -12 -22 0 -6 4 -5 9 2 6 10 10
7 13 -12 3 -14 2 -23 -2 -21 -4 3 -6 -25 -3 -61 2 -36 0 -63 -5 -60 -5 3 -9
-1 -9 -9 0 -8 4 -12 8 -10 4 3 10 -2 13 -11 3 -8 2 -13 -3 -10 -5 3 -11 -1
-15 -9 -3 -8 -2 -17 3 -19 12 -8 11 -69 -1 -83 -8 -10 -7 -12 6 -7 12 5 15 2
10 -10 -3 -9 -11 -13 -18 -9 -7 4 -7 2 1 -8 10 -12 10 -18 0 -29 -10 -10 -9
-12 6 -7 14 5 16 3 9 -11 -4 -9 -7 -52 -6 -95 2 -42 -1 -75 -5 -73 -4 3 -8 -1
-8 -9 0 -8 4 -12 8 -10 4 3 10 -2 13 -11 3 -8 2 -13 -3 -10 -10 6 -7 -77 4
-93 3 -6 3 -11 -2 -10 -22 4 -25 -3 -7 -17 10 -8 14 -13 8 -10 -7 3 -15 -1
-18 -10 -3 -8 -2 -12 4 -9 15 9 12 -29 -2 -44 -11 -10 -10 -11 5 -5 13 5 16 2
11 -10 -3 -9 -11 -13 -18 -9 -7 4 -7 2 1 -8 10 -12 10 -18 0 -29 -10 -10 -9
-12 6 -7 13 5 16 3 11 -5 -4 -7 -7 -27 -6 -44 2 -18 -2 -35 -8 -39 -5 -3 -10
-12 -10 -18 0 -8 3 -8 9 1 6 10 10 7 13 -12 3 -14 2 -23 -2 -21 -4 3 -6 -25
-3 -61 2 -36 0 -63 -5 -60 -5 3 -9 -1 -9 -9 0 -8 4 -12 8 -10 4 3 10 -2 13
-11 3 -8 2 -13 -3 -10 -5 3 -11 -1 -15 -9 -3 -8 -2 -17 3 -19 12 -8 11 -69 -1
-83 -8 -10 -7 -12 6 -7 12 5 15 2 10 -10 -3 -9 -11 -13 -18 -9 -7 4 -7 2 1 -8
10 -12 10 -18 0 -29 -10 -10 -9 -12 6 -7 14 5 16 3 9 -11 -4 -9 -7 -52 -6 -95
2 -42 -1 -75 -5 -73 -4 3 -8 -1 -8 -9 0 -8 4 -12 8 -10 4 3 10 -2 13 -11 3 -8
2 -13 -3 -10 -10 6 -7 -77 4 -93 3 -6 3 -11 -2 -10 -22 4 -25 -3 -7 -17 10 -8
14 -13 8 -10 -7 3 -15 -1 -18 -10 -3 -8 -2 -12 4 -9 15 9 12 -29 -2 -44 -11
-10 -10 -11 5 -5 13 5 16 2 11 -10 -3 -9 -11 -13 -18 -9 -7 4 -7 2 1 -8 10
-12 10 -18 0 -29 -10 -10 -9 -12 3 -8 12 5 15 -5 13 -53 -1 -40 2 -59 10 -59
7 0 6 -4 -3 -10 -12 -8 -12 -10 5 -10 15 0 17 -3 7 -9 -11 -7 -10 -9 3 -15 9
-3 13 -11 9 -17 -4 -7 1 -18 11 -26 11 -7 13 -13 7 -13 -7 0 -3 -9 8 -20 11
-11 26 -20 33 -20 9 0 9 -2 0 -8 -8 -5 -2 -12 18 -21 16 -7 26 -17 23 -23 -4
-6 -2 -8 4 -4 6 3 13 2 17 -4 4 -6 12 -7 18 -3 9 5 9 3 0 -8 -9 -12 -5 -14 30
-15 60 -3 61 -3 48 -17 -8 -10 -7 -14 4 -14 8 0 11 5 8 10 -3 5 0 7 8 5 8 -3
23 -1 34 5 17 9 18 8 8 -5 -11 -12 -6 -14 33 -13 27 1 49 8 55 16 7 11 9 10 9
-6 1 -18 2 -18 10 2 5 13 12 23 15 23 4 0 4 -4 1 -9 -3 -5 3 -11 14 -14 11 -3
18 0 17 6 -1 6 10 11 26 11 18 -1 26 3 24 11 -3 6 1 12 9 12 7 0 10 -5 7 -11
-4 -6 0 -5 8 1 9 7 26 14 40 17 13 2 23 9 21 16 -2 8 3 10 13 7 20 -8 47 2 39
15 -4 6 3 5 15 -1 16 -9 21 -9 19 1 -2 6 7 13 20 14 41 3 43 4 37 15 -4 6 -1
9 6 8 21 -3 69 12 69 22 0 5 7 6 15 3 8 -4 15 -1 15 5 0 7 8 8 25 1 22 -8 25
-7 23 7 -2 12 4 18 17 17 11 0 23 6 28 13 4 7 14 10 22 7 8 -4 15 -1 15 5 0 6
5 11 11 11 5 0 7 -6 3 -12 -4 -7 7 0 25 17 27 25 33 27 41 15 8 -13 10 -12 10
2 0 11 5 15 15 12 8 -4 15 -1 15 6 0 6 5 8 10 5 6 -3 10 -1 10 5 0 7 7 9 15 6
9 -3 18 1 21 9 4 8 10 13 14 10 5 -3 12 0 16 6 4 8 9 7 16 -2 7 -10 9 -9 5 7
-3 16 0 20 17 19 11 -1 27 4 34 12 7 7 24 13 38 13 13 0 32 9 41 20 13 14 19
16 25 7 5 -8 8 -7 8 6 0 9 5 17 11 17 5 0 7 -6 4 -12 -4 -7 2 -3 12 8 14 16
24 19 36 13 12 -7 20 -4 29 11 7 11 21 20 30 20 10 0 18 7 18 16 0 14 3 14 15
4 12 -10 15 -10 15 3 0 9 5 19 12 23 7 5 8 3 3 -5 -5 -9 -1 -9 16 1 13 7 28
19 32 26 5 7 12 10 18 7 5 -4 9 -1 9 4 0 6 7 11 15 11 8 0 15 5 15 10 0 6 7
10 15 10 8 0 15 6 15 13 0 8 4 7 10 -3 6 -10 10 -11 10 -2 0 6 7 12 15 12 9 0
18 7 21 15 4 8 14 15 24 15 10 0 21 7 24 16 3 8 10 12 16 9 5 -3 10 -1 10 4 0
6 5 11 11 11 5 0 7 -6 3 -12 -4 -8 -3 -10 2 -5 5 5 9 14 9 20 0 5 6 12 14 15
9 3 11 0 6 -7 -5 -9 -1 -9 14 0 12 8 16 16 10 20 -6 3 -1 9 10 12 14 3 19 1
14 -6 -9 -16 27 12 50 38 10 11 16 15 13 8 -4 -6 -1 -15 5 -19 7 -4 9 -3 6 2
-8 14 7 35 29 38 11 2 18 11 17 21 -1 12 2 14 9 7 7 -7 17 -3 32 12 11 13 31
26 43 30 11 4 24 13 27 21 3 8 12 12 21 9 10 -4 15 0 15 11 0 9 4 14 9 11 5
-3 11 1 15 9 3 8 12 15 20 15 9 0 25 10 37 23 12 12 19 15 15 7 -4 -8 2 -4 14
10 12 14 19 18 15 10 -4 -8 1 -6 10 5 9 11 19 19 23 19 4 -1 6 2 4 8 -1 5 2 7
7 4 5 -4 12 -2 16 4 4 6 10 8 14 6 4 -3 18 8 30 24 12 17 28 30 36 30 8 0 15
5 15 10 0 6 10 10 23 10 18 0 19 2 7 10 -14 9 -13 11 10 14 6 0 15 8 20 16 5
8 13 15 17 15 4 0 18 10 31 23 12 12 27 20 32 17 6 -4 7 2 3 12 -6 16 -5 16
10 4 15 -12 17 -12 11 4 -6 14 -4 16 6 10 10 -6 12 -4 7 8 -4 11 -2 14 7 11 7
-3 16 2 20 11 3 9 10 13 16 10 5 -3 10 -1 10 5 0 6 4 8 10 5 5 -3 7 0 4 8 -3
8 0 18 7 23 8 5 10 3 4 -6 -5 -9 -4 -11 3 -6 7 4 12 15 12 24 0 14 2 15 10 2
8 -12 10 -12 16 3 3 9 10 14 15 11 5 -3 9 3 9 12 0 10 3 14 6 11 4 -4 15 3 25
14 11 13 23 18 31 13 9 -5 8 -1 -2 11 -8 10 -10 16 -3 12 7 -5 16 1 23 13 6
11 18 20 26 20 10 0 14 6 11 14 -4 10 -1 13 9 9 9 -3 14 1 14 13 0 16 2 17 10
4 6 -10 10 -11 10 -3 0 18 31 52 44 49 6 -2 8 -1 4 1 -15 8 -8 25 7 19 8 -3
15 -1 15 5 0 6 6 7 13 3 7 -5 7 -2 -2 10 -8 9 -10 16 -5 15 23 -4 34 3 48 29
9 15 16 21 16 12 1 -9 5 -6 10 8 5 12 17 22 25 22 9 0 13 5 10 10 -3 6 -1 10
5 10 6 0 8 5 5 10 -4 6 -3 10 2 9 20 -3 33 2 31 13 -2 7 2 12 9 11 7 -2 20 11
30 27 10 17 23 28 30 26 6 -3 15 4 18 15 4 11 29 42 56 69 27 27 49 54 49 60
0 6 5 8 10 5 6 -3 10 1 10 9 0 9 7 16 15 16 9 0 12 6 9 15 -4 10 0 15 15 15
15 0 19 4 14 17 -4 11 -3 14 5 9 7 -4 12 -2 12 4 0 6 4 8 10 5 6 -3 7 1 4 10
-5 11 0 18 15 22 11 3 19 9 16 13 -3 4 2 11 11 14 8 3 13 10 10 15 -3 5 4 11
15 14 12 3 18 10 14 17 -3 6 -3 9 2 8 4 -2 9 1 10 6 1 5 14 17 30 27 17 11 22
19 13 19 -8 1 -3 8 13 16 15 8 27 17 27 20 0 3 -4 2 -10 -1 -6 -3 -7 1 -4 9 3
9 11 14 17 13 7 -1 11 4 9 11 -1 6 5 12 15 12 9 0 13 3 10 7 -4 3 1 12 11 19
14 11 14 13 2 14 -8 0 0 9 18 20 22 14 32 26 28 36 -3 8 -1 12 4 9 5 -3 15 5
22 19 6 14 15 26 20 26 5 0 6 6 2 13 -5 8 -2 7 9 -2 15 -12 17 -12 11 4 -6 14
-4 16 7 10 12 -7 12 -6 1 7 -10 13 -10 18 -1 24 8 4 9 3 5 -4 -4 -7 -3 -12 2
-12 13 0 24 29 16 41 -3 5 0 8 8 7 7 -2 12 3 10 10 -1 8 2 11 8 7 5 -3 15 6
20 20 5 14 14 24 19 20 6 -3 15 4 21 16 8 15 9 19 1 15 -6 -4 -11 -5 -11 -2 0
3 12 13 28 21 16 10 19 14 7 11 -19 -6 -19 -5 -2 8 9 7 17 19 17 25 0 7 5 9
10 6 6 -3 10 3 10 15 0 14 4 19 12 14 8 -5 9 -2 5 10 -4 9 -3 15 2 12 12 -8
23 23 14 37 -4 7 1 6 11 -2 9 -8 16 -10 15 -5 -3 20 2 35 10 29 6 -3 8 3 6 15
-2 11 1 19 8 17 7 -1 11 6 9 18 -2 11 -1 17 3 13 9 -8 35 14 28 25 -2 4 2 10
11 13 8 3 13 14 11 24 -3 14 1 17 12 13 11 -4 14 -2 9 5 -3 6 -1 14 7 19 20
13 48 63 42 74 -4 5 -1 8 7 7 7 -2 12 3 10 10 -1 6 2 12 8 12 5 0 10 5 10 11
0 13 26 40 32 33 3 -2 4 7 3 21 -2 14 0 23 5 20 8 -5 25 24 22 38 -1 4 3 7 9
7 5 0 7 5 3 12 -5 7 -2 9 9 5 11 -4 14 -2 11 7 -3 7 2 20 10 29 19 19 21 31 4
21 -9 -5 -9 -3 1 9 7 9 18 14 24 10 6 -4 8 0 4 10 -3 10 -2 17 3 17 6 0 10 9
10 21 0 11 5 17 10 14 6 -4 10 5 10 20 0 19 4 26 14 22 9 -4 13 0 11 11 -1 9
6 25 17 36 11 10 17 24 14 32 -3 8 1 14 9 14 8 0 15 5 15 11 0 5 -6 7 -12 4
-7 -4 -2 3 12 14 17 14 20 21 10 21 -13 0 -13 2 0 9 8 6 19 7 25 3 5 -3 4 1
-3 10 -9 11 -10 18 -2 23 5 3 10 3 10 -2 0 -4 5 -1 10 8 5 9 7 26 5 38 -4 19
-2 21 11 10 12 -10 13 -9 7 6 -5 15 -3 17 11 12 12 -5 15 -3 9 6 -11 18 -10
30 4 45 7 8 11 17 8 22 -3 4 2 11 11 14 13 5 14 9 3 22 -10 12 -10 15 2 12 8
-2 13 4 13 14 -1 11 5 18 15 18 14 0 14 2 1 10 -13 8 -12 10 4 10 14 0 16 3 7
14 -9 11 -6 17 14 30 23 15 24 20 13 34 -9 11 -10 14 0 8 7 -4 12 -2 12 8 0 8
7 22 16 30 9 10 11 16 4 16 -7 0 -5 7 4 16 9 8 13 21 9 27 -4 6 0 8 10 4 13
-5 15 -2 7 18 -8 20 -6 23 7 18 12 -5 14 -3 8 7 -5 8 -1 18 10 27 14 10 15 13
4 14 -8 0 -6 4 6 9 11 5 14 9 8 9 -7 1 -13 6 -13 12 0 5 4 8 9 5 10 -7 24 52
15 65 -3 5 0 8 8 7 8 -2 12 4 10 15 -2 9 2 17 9 17 6 0 9 7 5 15 -3 8 -1 15 5
15 6 0 8 4 4 9 -3 5 2 16 10 25 10 10 12 17 4 21 -7 5 -5 13 6 25 9 10 14 24
10 29 -3 6 0 14 9 17 8 3 13 14 11 24 -2 10 3 24 11 31 8 6 12 22 9 36 -3 19
-1 22 9 14 9 -8 13 -7 13 2 3 43 11 78 23 91 7 9 9 16 5 16 -5 0 0 10 11 22
10 12 14 18 8 15 -7 -4 -14 -1 -17 7 -3 8 1 13 11 12 13 -1 17 8 17 37 -1 27
4 37 15 37 9 0 11 3 5 8 -13 9 -13 21 3 49 7 13 10 23 6 23 -3 0 0 7 7 16 15
19 21 47 8 39 -5 -4 -6 1 -3 9 3 9 9 14 13 12 4 -3 7 7 8 22 1 48 3 53 13 47
6 -3 10 -2 10 4 0 5 -6 12 -12 14 -10 4 -10 6 0 6 6 1 12 10 12 21 0 11 6 20
13 20 8 0 9 3 1 8 -13 9 -14 42 -1 42 5 0 6 -7 3 -16 -3 -8 -2 -12 4 -9 6 4 8
17 6 31 -3 14 0 24 7 24 7 0 6 4 -3 10 -11 7 -11 10 -2 10 7 0 10 5 7 11 -4 6
1 17 11 25 11 9 14 13 7 10 -18 -10 -26 13 -11 31 7 9 12 25 10 36 -3 14 0 17
10 11 10 -6 10 -4 -1 9 -9 11 -10 17 -2 17 6 0 11 5 11 11 0 5 -6 7 -12 4 -7
-4 -5 0 4 7 15 13 15 15 0 26 -15 10 -15 11 2 5 16 -5 18 -3 14 15 -4 13 -1
22 5 22 7 0 5 5 -3 10 -10 7 -11 10 -2 10 8 0 11 9 8 26 -4 19 -1 24 8 21 11
-4 12 1 6 21 -4 17 -2 37 7 56 10 18 11 26 3 21 -9 -6 -9 -2 -1 13 6 10 8 29
6 41 -2 12 0 19 6 16 5 -4 9 8 9 25 0 21 4 29 12 24 7 -5 8 -3 3 5 -12 21 -11
93 3 98 19 8 14 26 -5 19 -15 -5 -15 -4 1 9 14 11 16 15 5 15 -12 0 -12 2 0 9
7 5 10 14 7 20 -4 6 -4 11 1 11 4 0 8 24 7 52 0 29 4 59 9 66 8 10 7 16 -4 23
-10 6 -10 9 -1 9 6 0 12 5 12 11 0 5 -4 7 -10 4 -17 -11 -11 11 12 41 13 15
17 25 10 20 -16 -9 -16 6 1 23 10 11 10 13 0 7 -7 -4 -13 -3 -13 1 0 5 6 15
13 22 10 11 9 12 -2 6 -10 -6 -12 -4 -5 6 12 20 12 59 -1 59 -5 0 -4 4 4 9 13
8 13 12 0 27 -8 10 -9 15 -3 11 15 -9 24 25 12 47 -7 12 -5 16 7 16 8 0 15 5
15 11 0 5 -4 8 -9 5 -5 -3 -12 2 -15 11 -4 9 -1 20 5 24 7 4 13 17 14 28 1 17
-1 19 -13 8 -13 -11 -14 -9 -2 13 15 27 24 122 9 99 -7 -11 -9 -10 -9 4 0 9 5
17 11 17 6 0 9 6 6 13 -2 6 -11 11 -18 9 -9 -1 -7 3 4 12 19 15 20 45 2 58 -6
5 -5 8 3 8 6 0 12 12 12 26 0 17 -4 23 -12 18 -10 -6 -10 -4 0 8 9 12 12 59
10 184 -3 144 -5 169 -18 166 -12 -2 -12 0 1 11 20 15 20 116 1 140 -10 12
-10 18 3 31 15 14 12 20 -7 17 -4 0 -5 6 -2 14 4 8 11 12 18 9 6 -4 3 1 -6 11
-12 13 -14 24 -7 41 4 13 5 24 0 24 -5 0 -7 13 -6 29 1 16 -1 35 -5 42 -5 7
-4 22 0 35 5 12 6 25 2 28 -11 12 -10 36 1 36 7 0 6 4 -2 9 -11 7 -12 13 -3
24 9 11 9 14 -3 14 -8 0 -11 -5 -8 -10 3 -6 1 -7 -6 -3 -9 6 -9 11 0 22 6 8 8
14 5 14 -4 0 -1 10 5 23 11 19 10 20 -2 10 -12 -10 -14 -3 -13 45 0 31 -3 65
-9 76 -6 13 -6 16 2 12 6 -4 11 -2 11 3 0 6 -5 11 -11 11 -5 0 -7 5 -3 12 4 6
-2 18 -12 26 -19 14 -19 15 0 8 19 -7 19 -6 1 14 -17 19 -10 28 11 13 5 -5 1
0 -9 10 -12 10 -14 17 -7 17 9 0 10 3 1 13 -8 10 -7 17 2 27 8 8 8 11 1 7 -7
-4 -15 0 -18 9 -3 8 -2 12 4 9 6 -3 10 -2 10 4 0 5 -5 11 -12 13 -6 2 -12 18
-12 35 -1 18 3 29 9 25 6 -3 4 1 -2 10 -7 8 -10 18 -6 21 3 4 1 7 -7 7 -9 0
-10 3 -1 13 7 10 7 17 0 24 -8 8 -8 17 0 31 8 15 7 23 -3 31 -9 8 -13 7 -13
-4 0 -8 5 -11 10 -8 6 3 7 1 3 -6 -4 -6 -11 -9 -16 -6 -9 6 -8 24 3 43 5 6 4
12 -1 12 -5 0 -8 10 -7 23 1 12 -2 30 -6 39 -6 11 -5 18 4 21 6 3 4 6 -7 6
-16 1 -17 3 -5 18 8 9 9 14 3 10 -7 -4 -14 0 -18 8 -3 8 0 15 7 15 9 0 9 2 -1
8 -7 5 -10 16 -6 25 3 9 2 17 -3 17 -5 0 -9 9 -10 20 -1 11 3 20 9 20 6 0 8 3
5 6 -4 4 -14 1 -23 -7 -16 -13 -16 -12 -5 9 9 16 9 22 0 22 -9 0 -9 3 0 14 9
10 9 16 1 21 -6 4 -9 13 -6 21 3 7 -2 20 -10 29 -9 9 -11 15 -4 15 6 0 8 5 5
10 -4 6 -10 8 -14 6 -4 -3 -5 8 -3 25 3 20 0 29 -9 29 -11 0 -11 2 1 10 13 9
13 10 0 10 -13 0 -13 1 0 10 13 8 13 10 -2 10 -12 0 -15 5 -11 16 3 9 0 19 -7
24 -10 6 -10 12 1 31 11 22 11 23 -5 10 -14 -12 -16 -12 -10 3 4 10 1 16 -7
16 -11 0 -11 3 1 10 10 6 11 10 3 10 -8 0 -13 13 -13 30 0 17 -5 30 -11 30 -5
0 -8 4 -5 8 3 5 -1 21 -9 36 -8 14 -10 24 -5 21 17 -11 11 4 -11 26 -14 14
-17 24 -11 28 7 4 7 12 2 20 -4 8 -6 20 -3 28 3 8 0 13 -8 11 -10 -2 -14 8
-14 34 1 20 -3 34 -7 32 -4 -3 -8 4 -8 15 0 12 -5 21 -11 21 -5 0 -7 -5 -3
-12 4 -7 3 -8 -5 -4 -7 5 -9 12 -3 19 20 25 9 52 -20 48 -3 0 -3 13 2 29 6 21
5 28 -2 24 -7 -5 -9 0 -6 14 4 15 2 19 -8 15 -10 -4 -14 4 -14 31 0 20 -5 36
-11 36 -5 0 -7 5 -4 10 3 6 2 10 -3 10 -6 0 -13 7 -16 16 -3 8 -2 12 4 9 13
-8 1 25 -16 45 -12 15 -14 19 -14 41 0 5 -3 8 -7 6 -5 -3 -9 9 -10 26 -2 18
-7 33 -13 35 -6 2 -8 8 -4 13 3 5 1 9 -5 9 -6 0 -7 7 -4 17 5 12 3 14 -7 8 -8
-5 -11 -3 -8 6 3 8 -4 26 -14 42 -11 15 -15 27 -8 27 6 0 8 5 5 10 -4 6 -10 8
-14 5 -5 -2 -13 7 -20 21 -6 14 -7 23 -1 19 5 -3 7 0 4 9 -3 8 -12 17 -19 20
-7 2 -12 17 -11 34 2 23 -2 28 -13 24 -10 -4 -13 -1 -8 11 3 9 2 19 -4 23 -6
3 -8 13 -5 21 3 8 1 11 -4 8 -6 -3 -11 -1 -11 4 -1 6 -2 17 -3 24 0 6 -7 13
-13 13 -24 3 -25 4 -13 19 9 11 9 15 1 15 -7 0 -9 5 -6 10 3 6 1 10 -5 10 -7
0 -9 7 -6 16 3 8 2 12 -4 9 -6 -3 -10 3 -10 13 0 11 -7 23 -16 26 -8 3 -12 10
-9 16 3 5 1 10 -5 10 -6 0 -9 4 -6 9 3 5 -3 20 -14 33 -11 14 -16 28 -13 32 3
3 1 6 -5 6 -7 0 -12 7 -12 15 0 8 -4 15 -10 15 -5 0 -10 9 -10 20 0 11 -5 20
-12 20 -6 0 -9 3 -5 6 3 4 -2 14 -11 23 -10 9 -12 12 -5 7 10 -6 12 -4 7 8 -3
9 -10 16 -16 16 -5 0 -6 5 -3 10 3 6 0 10 -9 10 -8 0 -13 8 -11 18 1 9 -7 23
-19 30 -19 12 -19 13 -1 7 17 -5 15 -2 -8 22 -15 16 -27 37 -27 46 0 9 -6 17
-14 17 -9 0 -12 7 -9 18 2 11 -3 24 -14 32 -15 12 -16 12 -5 0 6 -8 12 -18 12
-24 0 -5 -6 -1 -14 9 -8 11 -12 23 -10 27 3 4 -5 17 -16 28 -12 12 -19 28 -16
36 3 8 2 12 -4 9 -5 -3 -14 3 -19 14 -14 26 -14 34 1 25 7 -4 8 -3 4 4 -4 6
-13 9 -21 5 -11 -4 -15 2 -15 22 0 14 -3 24 -7 22 -5 -3 -13 1 -20 8 -10 11
-10 15 0 18 9 4 9 6 -1 6 -7 1 -10 6 -7 11 3 6 -1 10 -10 10 -11 0 -15 5 -12
15 4 8 1 17 -5 21 -7 5 -8 2 -3 -6 5 -9 4 -11 -3 -6 -7 4 -12 15 -12 25 0 10
-8 25 -17 32 -14 12 -16 12 -8 0 5 -9 4 -12 -3 -7 -6 4 -8 14 -5 23 4 10 -5
25 -26 43 -21 19 -27 30 -19 33 8 3 6 6 -4 6 -10 1 -18 6 -18 12 0 5 -5 7 -12
3 -6 -4 -8 -3 -5 4 10 15 -3 42 -20 42 -8 0 -12 4 -8 9 3 5 -6 22 -20 37 -13
14 -22 30 -19 35 5 9 -10 13 -30 10 -5 -1 -3 5 4 14 7 9 9 15 4 13 -5 -2 -9
-1 -9 2 0 3 -14 19 -31 35 -16 17 -23 26 -14 20 9 -5 3 2 -12 17 -15 15 -28
31 -28 36 0 4 -9 14 -20 22 -14 10 -16 16 -7 22 8 5 4 8 -11 8 -13 0 -20 4
-17 10 3 6 1 10 -5 10 -7 0 -10 6 -7 14 4 10 0 12 -16 8 -19 -5 -20 -3 -9 10
11 14 10 17 -7 23 -12 3 -21 13 -21 21 0 8 -4 12 -10 9 -5 -3 -10 3 -10 14 0
12 -6 20 -12 18 -7 -1 -12 6 -12 15 1 10 -1 17 -5 16 -21 -2 -30 4 -24 19 5
12 3 14 -7 8 -10 -6 -12 -4 -7 8 3 9 3 16 -1 16 -4 -1 -14 -1 -22 0 -13 1 -13
2 0 11 12 8 10 10 -8 10 -13 0 -21 4 -18 8 7 12 -24 53 -35 47 -5 -4 -9 -1 -9
5 0 6 -16 26 -35 46 -19 19 -35 39 -35 44 0 5 -12 16 -27 24 -16 8 -24 15 -20
16 4 0 -4 11 -18 25 -14 14 -25 30 -25 35 0 6 -3 9 -7 9 -21 -3 -33 2 -30 14
1 6 -4 11 -12 9 -12 -3 -12 0 -1 13 11 13 10 14 -5 9 -13 -5 -16 -4 -11 4 4 7
1 12 -9 12 -8 0 -19 8 -22 18 -8 20 -33 47 -33 35 0 -4 -7 3 -16 15 -8 12 -19
20 -24 17 -4 -3 -15 11 -24 30 -9 19 -19 35 -22 35 -3 0 -2 -4 1 -10 3 -6 -1
-7 -9 -4 -9 3 -14 11 -13 17 1 7 -6 11 -15 11 -10 -1 -15 3 -12 8 9 14 -26 48
-42 41 -10 -4 -12 0 -8 11 6 15 -6 21 -31 16 -5 -1 -7 2 -3 6 4 4 -9 23 -30
42 -20 19 -31 31 -23 27 9 -5 12 -4 7 3 -3 6 -15 9 -26 7 -12 -2 -17 1 -14 10
3 7 0 16 -7 21 -8 5 -10 3 -4 -6 5 -9 4 -11 -3 -6 -7 4 -12 14 -12 23 0 9 -3
14 -6 10 -8 -8 -34 18 -34 34 0 9 -4 8 -15 -1 -12 -10 -15 -9 -15 4 0 11 -5
14 -12 10 -8 -5 -9 -2 -5 9 3 9 3 16 -1 15 -13 -2 -42 14 -37 22 3 4 -2 11
-11 14 -10 4 -13 2 -8 -6 4 -7 3 -8 -4 -4 -7 4 -12 14 -12 23 0 9 -3 14 -6 10
-8 -8 -33 16 -27 25 2 4 -3 5 -11 2 -11 -4 -16 0 -16 10 0 9 -8 16 -21 16 -13
0 -18 4 -13 12 5 7 2 9 -9 5 -11 -4 -14 -2 -10 9 3 8 -1 14 -11 14 -9 0 -16 5
-16 10 0 6 -6 10 -14 10 -8 0 -16 7 -20 15 -3 8 -12 15 -20 15 -8 0 -18 5 -22
12 -5 7 -3 8 6 3 9 -6 11 -4 6 4 -5 7 -14 10 -22 7 -8 -3 -14 1 -14 10 0 8 -4
12 -10 9 -5 -3 -10 -1 -10 5 0 7 -7 9 -16 6 -8 -3 -13 -2 -11 2 6 9 -19 33
-27 25 -3 -4 -6 2 -6 13 0 14 -2 16 -9 6 -6 -10 -10 -9 -14 7 -3 12 -12 21
-21 21 -9 0 -16 3 -16 8 0 4 -14 13 -30 20 -17 8 -27 18 -24 24 4 6 1 9 -7 6
-17 -6 -50 22 -42 36 4 6 -2 4 -13 -4 -10 -8 -16 -11 -12 -6 9 11 -19 39 -31
31 -5 -3 -13 0 -17 6 -5 8 -3 9 7 4 12 -8 12 -6 0 8 -16 20 -35 23 -26 5 4 -7
-6 1 -22 17 -15 17 -24 25 -19 18 6 -10 4 -12 -8 -7 -9 3 -16 10 -16 14 0 5
-9 12 -20 15 -11 4 -18 11 -14 16 3 5 2 9 -3 8 -4 -1 -11 0 -15 1 -5 1 -14 3
-20 4 -7 1 -12 7 -11 13 1 6 -4 14 -13 17 -10 4 -13 1 -9 -7 4 -6 0 -5 -7 3
-22 24 -62 56 -54 43 4 -7 2 -13 -3 -13 -6 0 -11 7 -11 16 0 10 -6 14 -14 11
-9 -4 -17 2 -21 14 -6 16 -9 18 -21 8 -9 -8 -14 -8 -12 -2 2 6 -1 11 -5 11 -5
1 -16 9 -25 19 -9 10 -24 19 -32 21 -8 2 -24 13 -34 25 -18 20 -19 20 -13 2 7
-19 6 -19 -7 -2 -8 10 -24 19 -35 20 -13 1 -20 6 -17 14 3 8 -1 10 -11 6 -12
-5 -14 -3 -8 8 8 12 6 12 -9 0 -15 -12 -17 -12 -14 0 2 8 -4 14 -12 14 -8 0
-22 8 -31 18 -19 20 -33 23 -24 5 4 -7 -1 -4 -9 6 -9 11 -16 17 -16 13 0 -4
-10 1 -22 13 -12 11 -33 20 -47 20 -21 0 -23 2 -11 10 12 8 10 10 -8 10 -13 0
-20 4 -17 10 3 6 -1 7 -9 4 -9 -3 -16 -2 -16 4 0 6 -10 8 -22 5 -19 -4 -20 -3
-8 6 13 9 13 11 -2 11 -9 0 -19 6 -21 13 -4 8 -6 8 -6 -2 -1 -11 -5 -10 -17 5
-8 10 -13 13 -9 7 3 -7 1 -13 -4 -13 -6 0 -11 6 -11 14 0 9 -7 13 -20 11 -11
-2 -23 1 -26 7 -5 7 -2 8 6 3 9 -5 11 -4 6 4 -6 9 -11 9 -22 0 -12 -10 -15
-10 -12 2 2 8 -5 14 -17 15 -32 2 -55 15 -48 28 3 6 3 8 -2 4 -4 -4 -15 -2
-23 5 -13 10 -15 9 -8 -3 4 -8 1 -7 -7 3 -9 10 -18 18 -21 18 -24 -3 -36 0
-32 8 3 5 -1 12 -10 15 -9 3 -12 2 -9 -4 4 -6 -9 -2 -28 7 -19 10 -32 22 -29
27 3 5 0 6 -5 3 -6 -4 -21 1 -34 11 -13 9 -38 17 -56 17 -17 -1 -29 3 -27 7 3
4 -2 8 -11 8 -9 0 -13 5 -10 10 9 14 -8 13 -23 -2 -9 -9 -12 -9 -12 0 0 7 -7
12 -16 12 -8 0 -13 4 -9 9 3 6 -4 8 -15 6 -11 -2 -20 2 -20 8 0 7 -4 6 -10 -3
-8 -13 -10 -12 -10 4 0 16 -2 16 -16 6 -12 -11 -15 -11 -12 1 2 8 -3 13 -11
11 -8 -2 -18 3 -22 10 -7 10 -9 10 -10 -2 0 -10 -3 -8 -8 5 -4 11 -16 20 -27
21 -55 2 -65 5 -59 14 3 6 -4 10 -17 10 -13 0 -30 6 -37 13 -11 9 -12 9 -7 0
5 -9 2 -11 -8 -7 -9 3 -13 11 -9 17 3 6 1 7 -6 3 -6 -4 -19 -2 -28 6 -12 9
-15 9 -9 1 4 -7 2 -13 -3 -13 -6 0 -11 4 -11 9 0 5 -7 12 -16 15 -10 4 -13 2
-9 -7 4 -6 -1 -3 -9 7 -12 15 -16 16 -16 5 0 -12 -2 -12 -10 1 -5 8 -10 11
-10 7 0 -4 -10 -2 -22 5 -27 14 -30 15 -64 17 -14 0 -22 5 -19 11 4 6 -1 7
-11 3 -12 -4 -15 -3 -10 5 5 8 2 10 -9 6 -8 -4 -23 0 -32 7 -14 12 -16 12 -8
-1 8 -13 7 -13 -10 0 -10 8 -20 14 -22 13 -1 -2 -9 -3 -15 -3 -9 0 -8 4 2 10
8 5 10 10 4 10 -5 0 -15 -5 -22 -12 -7 -7 -12 -8 -12 -2 0 5 -12 11 -27 12
-15 1 -30 8 -34 15 -5 8 -24 12 -48 10 -24 -1 -41 3 -41 9 0 7 -5 6 -15 -2 -8
-7 -15 -9 -15 -4 0 16 -47 33 -59 21 -8 -8 -11 -7 -11 1 0 8 -10 11 -25 8 -14
-3 -23 -1 -20 4 3 4 -2 11 -11 14 -12 5 -15 2 -10 -10 4 -12 -1 -11 -23 5 -22
16 -31 18 -34 9 -4 -9 -6 -9 -6 -1 -1 6 -10 9 -21 6 -14 -4 -20 0 -20 10 0 9
-8 15 -19 14 -11 0 -17 -5 -15 -9 3 -4 -2 -5 -10 -2 -9 3 -16 11 -16 18 0 7
-3 7 -8 1 -9 -12 -32 -18 -32 -8 0 12 -54 10 -63 -2 -5 -6 -7 -3 -3 8 3 9 2
17 -2 18 -4 0 -15 2 -24 4 -10 2 -21 -1 -24 -6 -3 -6 -11 -5 -20 2 -8 6 -14 8
-14 4 0 -4 -7 -2 -15 5 -10 8 -15 9 -15 2 0 -6 -7 -9 -15 -6 -8 4 -12 11 -8
17 4 6 1 7 -8 1 -21 -13 -39 -14 -39 -2 0 6 -7 4 -17 -3 -11 -10 -14 -10 -9
-1 7 12 -10 15 -77 14 -25 -1 -27 1 -15 16 11 14 9 14 -16 -2 -16 -10 -26 -14
-23 -9 3 5 2 15 -4 23 -7 12 -9 12 -9 -3 0 -10 -5 -15 -10 -12 -6 4 -7 12 -3
18 3 7 -4 3 -17 -8 -13 -11 -20 -14 -15 -6 6 11 3 13 -13 9 -12 -4 -22 -1 -22
4 0 7 -5 6 -14 -1 -8 -7 -17 -8 -19 -3 -3 4 -33 7 -67 6 -50 -2 -59 0 -50 11
9 11 7 12 -9 8 -12 -3 -18 -9 -15 -14 3 -5 -2 -6 -10 -3 -9 3 -14 9 -12 13 2
3 -9 6 -25 7 -17 1 -26 -3 -22 -9 4 -6 1 -7 -8 -1 -8 5 -33 9 -56 10 -23 0
-50 7 -60 15 -10 8 -14 9 -10 2 6 -9 -4 -12 -37 -11 -24 0 -49 -3 -55 -6 -7
-5 -8 -1 -4 11 6 15 4 16 -9 6 -8 -7 -18 -10 -21 -6 -4 3 -7 1 -7 -6 0 -8 -5
-7 -16 3 -8 9 -21 16 -27 16 -7 0 -6 -4 3 -11 12 -8 10 -9 -10 -7 -14 2 -24 9
-22 16 1 8 -2 11 -8 7 -6 -3 -8 -9 -6 -13 2 -4 -9 -7 -24 -7 -16 -1 -27 2 -24
6 2 4 -3 10 -12 13 -8 3 -13 2 -10 -3 3 -5 -1 -12 -10 -15 -22 -9 -31 -7 -16
3 9 5 -4 8 -33 8 -25 0 -48 -4 -51 -8 -2 -5 -17 -4 -31 2 -38 14 -83 18 -83 6
0 -5 -7 -4 -15 3 -12 10 -15 9 -15 -6 0 -17 -1 -17 -15 2 -8 10 -15 15 -14 9
3 -24 -2 -27 -17 -9 -11 13 -14 14 -11 3 3 -9 -1 -16 -9 -16 -9 0 -13 7 -9 16
4 12 2 12 -9 -2 -13 -16 -14 -16 -20 -1 -6 15 -8 15 -24 0 -15 -12 -21 -13
-32 -3 -10 9 -11 9 -6 0 4 -7 3 -13 -3 -13 -5 0 -12 8 -14 18 -4 14 -5 14 -6
-3z m2056 -237 c-3 -8 -6 -5 -6 6 -1 11 2 17 5 13 3 -3 4 -12 1 -19z m1046
-2819 c-8 -8 -13 -7 -18 2 -5 8 -4 10 3 5 7 -4 12 -2 12 5 0 7 3 9 7 6 4 -4 2
-12 -4 -18z m2965 -14 c-3 -3 -9 2 -12 12 -6 14 -5 15 5 6 7 -7 10 -15 7 -18z
m-12738 -2795 c0 -5 -5 -10 -11 -10 -5 0 -7 5 -4 10 3 6 8 10 11 10 2 0 4 -4
4 -10z m-80 -759 c0 -6 -4 -12 -8 -15 -5 -3 -9 1 -9 9 0 8 4 15 9 15 4 0 8 -4
8 -9z m-8 -697 c-6 -12 -9 -7 -9 16 0 23 3 28 9 16 5 -9 5 -23 0 -32z m14033
-23 c3 -5 2 -12 -3 -15 -5 -3 -9 1 -9 9 0 17 3 19 12 6z m-11640 -2461 c3 -6
-1 -7 -9 -4 -18 7 -21 14 -7 14 6 0 13 -4 16 -10z m2345 -146 c0 -8 -19 -13
-24 -6 -3 5 1 9 9 9 8 0 15 -2 15 -3z m590 -914 c0 -5 -4 -10 -10 -10 -5 0
-10 5 -10 10 0 6 5 10 10 10 6 0 10 -4 10 -10z m-170 -264 c0 -3 -4 -8 -10
-11 -5 -3 -10 -1 -10 4 0 6 5 11 10 11 6 0 10 -2 10 -4z m117 -1802 c-3 -3
-12 -4 -19 -1 -8 3 -5 6 6 6 11 1 17 -2 13 -5z m4946 -375 c-8 -8 -13 -7 -18
2 -5 8 -4 10 3 5 7 -4 12 -2 12 5 0 7 3 9 7 6 4 -4 2 -12 -4 -18z"/>
<path d="M3515 11000 c3 -5 8 -10 11 -10 2 0 4 5 4 10 0 6 -5 10 -11 10 -5 0
-7 -4 -4 -10z"/>
<path d="M10496 11002 c-3 -5 1 -9 9 -9 8 0 12 4 9 9 -3 4 -7 8 -9 8 -2 0 -6
-4 -9 -8z"/>
<path d="M5505 10321 c-3 -5 -1 -12 5 -16 5 -3 10 1 10 9 0 18 -6 21 -15 7z"/>
<path d="M520 9569 c0 -5 5 -7 10 -4 6 3 10 8 10 11 0 2 -4 4 -10 4 -5 0 -10
-5 -10 -11z"/>
<path d="M5725 8569 c-96 -9 -173 -25 -258 -51 -40 -12 -74 -22 -77 -23 -3 -1
-35 -15 -71 -32 -137 -64 -283 -183 -313 -257 -37 -89 -9 -152 56 -127 13 5
25 8 28 8 3 0 23 9 45 20 32 16 95 36 155 48 6 2 109 17 135 21 32 5 267 4
305 -1 56 -8 95 -14 165 -29 11 -2 31 -9 45 -14 14 -5 30 -10 35 -11 24 -3
112 -35 133 -49 12 -8 22 -11 22 -7 0 5 9 0 20 -10 11 -10 20 -15 20 -11 0 4
13 -2 29 -13 16 -12 34 -21 40 -21 6 0 11 -4 11 -10 0 -5 5 -10 10 -10 6 0 29
-12 52 -26 23 -14 46 -27 52 -29 6 -1 25 -8 41 -15 45 -20 163 -18 202 3 134
72 161 232 60 361 -33 43 -87 96 -99 96 -4 0 -13 6 -20 13 -20 20 -174 92
-238 111 -30 9 -68 21 -85 26 -16 5 -43 12 -60 14 -16 3 -39 8 -51 10 -95 19
-276 26 -389 15z"/>
<path d="M9018 8535 c-1 -2 -34 -6 -72 -10 -74 -7 -213 -40 -341 -82 -145 -46
-288 -133 -340 -205 -41 -56 -53 -128 -34 -195 15 -55 78 -125 133 -147 86
-35 227 -4 376 84 146 87 304 152 445 183 61 14 198 15 270 2 85 -15 287 -115
341 -170 19 -19 53 -7 60 22 10 40 -4 112 -32 164 -80 147 -313 296 -529 340
-48 10 -269 21 -277 14z"/>
<path d="M6083 7771 c-52 -24 -115 -89 -143 -146 -12 -24 -22 -48 -22 -52 0
-4 -3 -12 -8 -18 -6 -8 -22 -55 -35 -105 -52 -203 9 -456 142 -584 38 -36 51
-45 57 -39 3 4 6 1 6 -6 0 -7 4 -10 9 -6 5 3 12 1 15 -3 10 -17 90 -12 132 8
44 22 96 89 108 140 1 3 7 14 13 25 6 11 11 22 11 25 0 3 5 23 11 45 27 102
31 218 11 340 -14 88 -56 237 -80 286 -22 41 -71 95 -92 97 -83 12 -96 11
-135 -7z"/>
<path d="M8755 7774 c-43 -22 -64 -44 -88 -89 -12 -22 -21 -42 -22 -45 0 -3
-11 -35 -23 -71 -25 -72 -27 -82 -41 -180 -13 -86 -6 -249 13 -332 16 -68 56
-159 82 -185 8 -7 14 -17 14 -21 0 -13 86 -51 115 -51 90 0 178 68 239 183 19
37 33 67 30 67 -2 0 2 13 11 30 8 16 15 32 15 35 0 3 0 6 1 8 2 6 7 36 13 72
18 108 0 234 -55 375 -63 164 -202 257 -304 204z"/>
<path d="M14055 7270 c-3 -5 -1 -10 4 -10 6 0 11 5 11 10 0 6 -2 10 -4 10 -3
0 -8 -4 -11 -10z"/>
<path d="M11490 6749 c0 -5 5 -7 10 -4 6 3 10 8 10 11 0 2 -4 4 -10 4 -5 0
-10 -5 -10 -11z"/>
<path d="M7720 6684 c-41 -7 -110 -25 -153 -39 -87 -28 -237 -99 -248 -117
-15 -25 2 -36 49 -32 47 4 59 5 179 24 106 17 241 15 319 -4 185 -46 221 -217
70 -333 -84 -65 -297 -113 -384 -87 -24 7 -50 18 -58 25 -20 16 -39 21 -82 21
-106 -2 -180 -150 -131 -261 23 -53 52 -81 118 -113 41 -20 59 -23 166 -22
294 4 525 131 649 357 27 50 33 73 45 179 13 117 -26 243 -97 314 -35 35 -107
74 -167 89 -52 14 -197 13 -275 -1z"/>
<path d="M6603 5280 c-44 -10 -62 -32 -69 -82 -8 -58 16 -151 67 -258 41 -87
80 -141 159 -222 47 -48 163 -138 179 -138 5 0 11 -3 13 -8 7 -17 179 -91 218
-94 3 0 16 -5 30 -10 121 -47 364 -39 553 18 88 26 259 119 341 184 52 42 140
138 152 167 28 65 12 138 -42 202 -39 46 -67 61 -126 68 -61 8 -100 -13 -184
-95 -172 -168 -307 -226 -510 -218 -54 3 -106 6 -114 8 -8 3 -35 10 -60 17
-61 16 -184 77 -244 121 -72 51 -215 197 -257 260 -51 76 -67 88 -106 80z"/>
<path d="M13725 4660 c-3 -6 1 -7 9 -4 18 7 21 14 7 14 -6 0 -13 -4 -16 -10z"/>
<path d="M8625 3810 c-3 -6 1 -7 9 -4 18 7 21 14 7 14 -6 0 -13 -4 -16 -10z"/>
<path d="M3516 3037 c3 -10 9 -15 12 -12 3 3 0 11 -7 18 -10 9 -11 8 -5 -6z"/>
<path d="M3535 1970 c3 -5 8 -10 11 -10 2 0 4 5 4 10 0 6 -5 10 -11 10 -5 0
-7 -4 -4 -10z"/>
</g>
</svg>
